<?xml version="1.0" encoding="UTF-8"?><svg xmlns="http://www.w3.org/2000/svg" viewBox="0 0 1080 1080"><defs><style>.cls-1{fill:#f2eeea;}.cls-2{fill:#6a6263;}.cls-3{fill:#68645e;}.cls-4{fill:#f5f0e6;}.cls-5{fill:#e7f2f7;}.cls-6{fill:#e9ded5;}.cls-7{fill:#fff;}.cls-8{fill:#eadace;}.cls-9{fill:#80716d;}.cls-10{fill:#7f96bf;}.cls-11{fill:#a08674;}.cls-12{fill:#93a9d7;}.cls-13{fill:#324275;}.cls-14{fill:#8e8f95;}.cls-15{fill:#ae8b71;}.cls-16{fill:#aac4e6;}.cls-17{fill:#b38c74;}.cls-18{fill:#aab1be;}.cls-19{fill:#ddcbc5;}.cls-20{fill:#ddd8d6;}.cls-21{fill:#d2b7a4;}.cls-22{fill:#c4a182;}.cls-23{fill:#d6c1ba;}.cls-24{fill:#252525;}.cls-25{fill:#252628;}.cls-26{fill:#212828;}.cls-27{fill:#444d4f;}.cls-28{fill:#443c3e;}.cls-29{fill:#9bacd8;}.cls-30{fill:#717f4c;}.cls-31{fill:#586c31;}.cls-32{fill:#2b364e;}.cls-33{fill:#2d3859;}.cls-34{fill:#5665af;}.cls-35{fill:#353e45;}.cls-36{fill:#394143;}.cls-37{fill:#2f373c;}.cls-38{fill:#4e433b;}.cls-39{fill:#4e6477;}</style></defs><g id="Background"><rect class="cls-16" width="1080" height="1080"/></g><g id="Circle"><circle class="cls-28" cx="535.21" cy="491.48" r="344.64"/></g><g id="Base"><path class="cls-22" d="M534.59,227.82c-83.88,4.08-66.61-28.01-66.61-28.01,0,0-53.51-41.1-94.52,7.29s-97.2,40.54-114.58,43.16-37.61,20.35-26.14,52.28c0,0-11.2,20.93-6.38,40.73,0,0,9.67,18.77,8.21,40.73s15.63,30.82,26.14,37.69c0,0,12.5,27.99,37.69,31.91s38.29-.91,38.29-.91c0,0,13.62,2.52,10.33,28.57s-15.01,95.22-10.03,163.51,87.8,251.11,224.33,259.43c185.13,11.29,266.03-246.61,182.32-370,0,0-42.88-43.16-11.74-41.55s91.17-2.54,108.11-195.09c0,0-1.43-29.81-44.08-26.82,0,0-15.42-21.17-39.59-21.99,0,0-33.24-6.85-52.69-23.33s-101.5-38.88-101.5-20.17c0,31.82-17.75,20.15-67.55,22.57Z"/><path class="cls-21" d="M409.08,327.6s9.72-64.78,51.95-88.56c0,0,33.88-9.32,28.14,19.71s20.81,28.01,20.81,28.01v67.26l-36.98,18.11-63.92-44.53Z"/><path class="cls-21" d="M657.58,353.31s-9.44-87.24-51.67-111.02c0,0-33.88-9.32-28.14,19.71,5.74,29.03-20.81,28.01-20.81,28.01v67.26s36.98,18.11,36.98,18.11l63.64-22.07Z"/><path class="cls-19" d="M596.44,311.3s68.36,21.57,104.91,73.7c36.55,52.14-103.13,129.04-103.13,129.04l-57.3-173.26s38.83-35.96,55.52-29.49Z"/><path class="cls-19" d="M454.46,314.81s-68.36,21.57-104.91,73.7,91.58,129.04,91.58,129.04l68.86-173.26s-38.83-35.96-55.52-29.49Z"/><path class="cls-21" d="M686.88,443.95s-15.65-13.2-54.78,22.93-50.09,33.47-50.09,33.47c0,0-12.52,100.06,10.96,94.41,23.48-5.66,42.26-58.56,65.74-64.19s50.09-83.86,50.09-83.86l-21.91-2.75Z"/><path class="cls-15" d="M336.68,452.68s18.93,15.63,18.93,24.5,14.61,76.17,14.61,76.17l38.73,31.83,18.58-22.96s-72.21-107.95-90.84-109.54Z"/></g><g id="Face"><g><path class="cls-9" d="M757.59,558.19l-28.68,5.52c15.62-.27,37.64,9.01,30.67,66.54-10.5,86.75-83.16,146.9-83.16,146.9,0,0-4.61,19.68,23.46-7.32,28.07-27,19.32,7.32,22.71,7.32s11.1-15.54,19.44-35.5c16.26-38.92,26.38-88.42,32.02-123.15-2.75-21.38-8.19-41.8-16.47-60.31Z"/><path class="cls-9" d="M728.91,563.71c-7.94,.14-14.23,2.74-14.23,2.74l14.23-2.74Z"/></g><path class="cls-9" d="M356.76,537.35s-24.11-13.74-7.5,33.75c0,0,.99,12.3,23.36,26.38s31.12,79.79,31.12,79.79c0,0-.12,34.69,17.48,37.82s6.29-93.29,6.29-93.29l-70.76-84.44Z"/><path class="cls-9" d="M758.02,560.19c-4.1-9.17-8.89-17.88-14.4-26,0,0-19.93-20.07-22.74-32.32-1.42-.52,1.5-25.31-1.88-28.8-12.99-13.42-34.25,18.41-34.25,18.41,0,0,0,37.27,4.53,64.95l-40.7,59.45s-55.59,54.32-38.37,61.39c17.22,7.07,2.37,77.43-22.67,78.8,0,0-14.09,24.34,14.09,23.03s46.15-69.23,46.15-69.23c0,0,5.5-31.83,28.98-30.48,23.48,1.36,46.96-16.6,28.17-46.75-2.35-3.77-3.33-7.77-3.24-11.88,.54-26.03,47.41-55.25,56.33-60.57Z"/><path class="cls-23" d="M540.38,232.22s-25.64,1.97-64.22-11.75c0,0,36.49,20.62,64.22,18.4,0,0,25.23-10.47,53.4-2.48,0,0,13.04,2.64,17.48-9.4,.99-2.9,6.2-27.06-4.7-21.13-4.46,1.33-1.04,18.12-6.78,21.91-13.12,8.66-33.98-5.79-59.4,4.45Z"/><path class="cls-21" d="M338.32,452.2s20.04-1.84,28.86-27.66c0,0,34.44-6.52,53.26,30.04s15.46,47.36,15.46,47.36l-17.85,66.5s-43.05-32.68-49.66-66.95-30.06-49.3-30.06-49.3Z"/><path class="cls-15" d="M696.8,450.94c1.1-.4,26.35,18.36,26.29,29.06-32.69,33.46-34.7,117.29-55.65,128.04s0,0,0,0l-47.89,32.34s-53.71-32.62-33.14-55.2,40.13-66.98,56.84-71.72,53.55-62.52,53.55-62.52Z"/><path class="cls-4" d="M352.94,708.98s-8.09-31.93,0-32.78c8.09-.85,7.66,38.32,28.95,35.34,21.29-2.98,47.26,9.37,32.78-15.75,0,0-2.76-5.96,2.45-12.35,0,0-13.09-11.92-13.52-25.12s-16.38-60.84-16.38-60.84l12.55,15.93,216.89,41s4.91,34.13,21.52,34.99c16.6,.85-8.51,28.95-8.51,28.95,0,0-7.24,41.72-29.38,38.32s-24.47,21.14-25.54,34.06,17.26,45.32,37.92,30.65c20.66-14.67,12.13-23.01,44.67-13.2,0,0,16.07,6.39,19.53,13.2,0,0,15.28,19.12,38.37-19.98-8.9,15.57-10.74,19.78-8.09,23.39s-4.68,22.56-9.37,28.1-45.98,49.28-120.48,51.67c-78.67,6.5-173.93-66.44-224.36-195.57Z"/><path class="cls-6" d="M591.07,668.58c34.81-14.35,76.37-60.54,76.37-60.54,0,0-11.5,8.48-20.94,10.75,0,0,16.92-8.53,20.94-21.35,0,0-12.85,13.78-18.92,10.6,0,0,24.3-13.76,28.35-33.45,0,0-5.06,15.63-24.97,21.49-15.27,4.49-32.41,18.85-39.23,20.78-6.82,1.93-24.6,4.73-13.16-21.24,11.44-25.97-181.46-27.17-181.46-27.17,0,0-12.07,9.43-23.3-1.39s-28.57-20-29.02-43.2-7.92-14.59-10.11-48.05c0,0,.33,28.96-8.56,17.6l7.63,14s-6.28,3.03-10.28-5.82c0,0,3.14,15.25,8.85,18.11,0,0-5.77,3.01-9.96-3.48-2.09-3.23,14.25,35.48,26.54,40.34,0,0-9.72,3.43-17.72-6.57,0,0,24.29,45.51,42,58.04,0,0,32.27,53.53,115.87,67.14,0,0,46.27,7.75,81.08-6.59Z"/><g><path class="cls-5" d="M535.21,241.09s-31.54,8-35.93,64.29-14.27,80.92-25.05,91.7-25.05,55.09-34.98,94.07-47.9,77.9,6.82,127.34"/><path class="cls-5" d="M446.07,618.49s73.92,94,153.43-22.87c38.05-55.93-19.27-111.48-11.62-138,10.77-37.31-30.24-86.79-24.78-130.97s-10.3-99.46-27.89-85.56"/></g><path class="cls-24" d="M448.74,197.16s-48.3,4.34-48.3,36.13c0,0,12.41-4.34,9.42,12.57s-25.82,59.01-16.49,76.57c2.33,4.39,2.72,7.18,1.96,9.18-2.26,5.98-14.76,4.77-15.71,17.92-1.26,17.53-6.17,47.09-7,62.67,10.88-19.46,11.5-52.8,11.5-52.8,0,0-1.5-10.54,11.6-17.33s7.68-38.37,13.57-43.84c9.09-8.46-.07-17.05,19.42-31.55s-33.3-21.91,20.03-69.5Z"/><path class="cls-1" d="M474.87,380.98c4.58-10.02,8.24-20.45,10.92-31.13-3.73,4.06-6.86,8.67-9.26,13.63,2.85-6.38,4.2-13.42,3.92-20.41-.48,4.28-2.28,8.4-5.08,11.67,1.82-7.76,2.18-15.86,1.07-23.76l-3.82,12.14c.31-8.07-3.25-16.21-9.4-21.46,.06,3.93,.13,7.86,.19,11.79-5.49-6.16-12.18-11.26-19.58-14.91l5.08,9.06c-6.99-5.08-15.15-8.54-23.66-10.03,2.74,3.09,5.47,6.17,8.21,9.26-7.63-3.62-17-3.32-24.39,.78,2.68,1.77,5.37,3.55,8.05,5.32-4.67-1.58-9.93-1.36-14.45,.61,4.72-1.33,10.02-.42,14.02,2.42-6.45,.17-12.82,2.66-17.67,6.93,3.17-1.96,7.43-2,10.64-.1-9.17,1.9-17.47,7.7-22.4,15.67,3.53-1.38,7.06-2.76,10.59-4.15-7.36,4.13-12.76,11.6-14.36,19.89,2.7-2.43,5.41-4.86,8.11-7.28-3.03,5.89-4.76,12.44-5.04,19.06,.81-2.15,2.12-4.11,3.79-5.68-.25,5.42-.5,10.85-.75,16.27,.1-2.92,.96-5.8,2.46-8.3,.41,4.65,.4,9.33,0,13.97,.5-3.79,1.69-7.49,3.5-10.86-.12,6.71,.79,13.44,2.68,19.89-.06-3.27,.74-6.55,2.3-9.43-.45,5.35,.27,10.8,2.09,15.86,.49-3.52,2.02-6.88,4.35-9.56,1.1,5.25,2.21,10.5,3.31,15.75,.22-4.16,.45-8.31,.67-12.47,.07,6.6,1.84,13.18,5.09,18.92,.54-5.5,1.08-11,1.62-16.5,2.23,6.76,4.45,13.52,6.68,20.28-.94-5.53-.67-11.26,.81-16.67,2.45,4.76,4.26,9.85,5.36,15.1-.03-5.09-.05-10.18-.08-15.28,1.64,5.53,4.22,10.77,7.59,15.45l2.66-14.41c3.58,2.25,3.82,6.76,4.21,11.46,1.89-8.4,.28-9.43-.38-13.76l6.32,9.65c-1.07-3.78-.69-7.95,1.06-11.47l2.49,6.61c1.4-11.03,13.32-18.58,14.45-29.64,.28-2.73-.13-5.56,.72-8.17s3.68-4.92,5.3-2.03Z"/><path class="cls-1" d="M569.98,359.17c-2.53-11.42,.29-23.9,7.48-33.12-2.19,5.24-3.41,10.88-3.58,16.56,.86-7.66,4.74-14.94,10.63-19.92-2.31,5.25-3.95,10.78-4.88,16.44,3.2-8.12,8.91-15.23,16.14-20.11-2.01,5.51-4.02,11.01-6.03,16.52,2.53-7.07,8.31-12.91,15.35-15.51-2.22,4.59-4.43,9.18-6.65,13.76,2.65-4.8,6.96-8.66,12.01-10.79-2.43,2.65-4.23,5.87-5.21,9.33,2.83-3.64,7.81-5.48,12.33-4.55-2.92,1.46-5.3,3.98-6.6,6.98,4.38-2.73,9.82-3.73,14.89-2.74-2.24,1.27-4.22,2.98-5.82,5,6.13-2.17,12.94-2.39,19.2-.61-3.7-.13-7.42,.68-10.73,2.33,7.95,1.69,15.68,4.39,22.95,8.01-3.44-.51-6.95-.45-10.37,.17,6.46,1.98,12.75,4.5,18.8,7.52-3.32,.39-6.46,2.11-8.58,4.7,6.46-1.93,16.13,2.37,16.13,2.37,0,0-10.83-.39-13.56,1.84,6.31,5.32,11.07,12.45,13.56,20.32-3.15-3.83-7.03-7.05-11.38-9.44,4.71,5.98,7.7,13.29,8.54,20.86-2.3-2.72-4.61-5.43-6.91-8.15,2.91,7.07,4.21,14.79,3.78,22.42-1.93-2.26-1.06-2.46-5.09-4.14,1.44,6.48,5.51,12.25,4.31,19.44-1.46-5.64-4.6-10.84-8.91-14.76,2.05,8.32,2.62,17,1.67,25.51-3.33-4.1-5.86-8.84-7.41-13.88,2.89,7.41,4.32,15.38,4.21,23.34l-8.42-19.25c3.05,7.4,3.09,15.99,.12,23.43l-4.93-16.73c1.11,7.53,0,15.38-3.18,22.29-1.55-7.7-3.1-15.4-4.65-23.1,1.06,7.04,.75,14.29-.92,21.22-1.45-6.93-2.89-13.87-4.34-20.8,1.14,8.23-2.64,16.95-9.42,21.75,2.88-6.38,4.11-13.5,3.53-20.48,1.19,7.75-3.3,16.03-10.44,19.26,4.45-6.04,5.86-14.21,3.7-21.39-.11,5.55-5.59,10.39-11.11,9.79,2.89-4.3,4.57-9.4,4.79-14.57-2.25,5.22-10.13,6.84-14.26,2.92,2.23-2.19,3.57-5.26,3.66-8.38-5.27-5.26-7.68-13.23-6.18-20.53-.69,1.3-2.91,.29-3.12-1.16s.69-2.8,1.26-4.16c2.84-6.7-2.14-13.98-7.06-19.34s-8.26-11.79-9.3-16.46Z"/><path class="cls-18" d="M463.42,497.33c2.84-13.83,17.74-26.74,31.65-24.32,4.64,.81,9.11,2.8,13.82,2.73,6.53-.1,12.32-4.14,18.68-5.61,8.04-1.86,16.61,.56,23.58,4.98s12.54,10.69,17.7,17.13c4.5,5.62,5.09,14.25,3.27,21.22-9.17-3.56-15.45-4.45-25.29-4.23-29.52,.67-59.16-1.65-83.42-11.9Z"/><path class="cls-14" d="M477.64,549.62c-5.18-.25-10.16,2.6-13.48,6.57s-5.21,8.96-6.51,13.98c-1.33,5.11-1.08,12.2,3.99,13.67,4.59,1.33,9.85-3.42,13.94-.95,3.79,2.28,2.55,8.27,5.07,11.91,2.64,3.81,8.33,3.69,12.77,2.34s8.98-3.54,13.5-2.48c2.1,.5,3.97,1.67,5.88,2.68,7.43,3.94,16.23,5.62,24.41,3.67s15.57-7.77,18.48-15.67c2.91-7.89,.74-17.64-5.82-22.89-4.28-3.42-9.82-4.74-15.16-5.96-8.89-2.04-17.79-4.07-26.68-6.11-11.25-2.58-23.84-4.96-30.38-.78Z"/><path class="cls-1" d="M342.6,237.49c-9.36,5.88-20.26,8.8-30.08,13.87s-19.12,13.36-20.62,24.31c-.6,4.42,.12,8.99-1.01,13.3s-5.18,8.46-9.51,7.4c2.54,2.21,6.45,2.19,9.53,.84s5.53-3.8,7.89-6.19c-1.46,6.58-5.55,12.54-11.16,16.27,4.43-1.49,8.46-4.15,11.56-7.65-.73,3.77-2.52,7.33-5.11,10.17,5.1-4.22,9.11-9.75,11.54-15.91,1.14,2.88,.42,6.4-1.77,8.59,3.82-3.89,6.97-8.44,9.28-13.38,.55,2.69-.46,5.64-2.54,7.44,3.48-4.5,6.28-9.54,8.27-14.87,.57,3.15-.2,6.52-2.07,9.12,3.88-3.69,6.33-8.83,6.77-14.17,.37,3.85-.82,7.83-2.59,11.57,10.59-9.15,18.42-21.44,22.26-34.9,1.55-5.44,2.17-12.06-.64-15.81Z"/><path class="cls-19" d="M684.05,770.24s53.22-61.57,61.57-61.04-35.48,58.96-61.57,61.04Z"/></g><g id="Features"><path class="cls-35" d="M454.46,613.39s26.91-17.36,52.6-10.17c25.69,7.19,58.25,3.53,62.77,13.08,0,0-82.83,37.77-115.37-2.91Z"/><path class="cls-36" d="M460.64,501.63c-.82,1.39-1.34,2.95-1.5,4.56-.73,7.12-2.44,28.24,2.3,33.67,5.73,6.56,39.73,48.86,53.46,40.72,12.53-7.43,19.56-5.14,27.92-11.37,8.36-6.23,21.59-19.21,23.25-24.41s12.24-29.61,.87-40.98-22.95-28.08-48.82-17.15c0,0-35.39-22.45-57.46,14.95Z"/><path class="cls-25" d="M467.13,535.59s24.62,5.88,11.39-17.67c0,0,15.77-12.31,19.63,3.93s-16.25,32.6-31.02,13.74Z"/><path class="cls-25" d="M547.62,518.71s-29.18-8.84-14.14,22.38c0,0,6.5,11.1,20.81,1.57,0,0-17.8-7.87-6.68-23.95Z"/><path class="cls-27" d="M472.27,608.08c8.41,4.9,18.65,5.08,28.38,5.14,6.72,.04,13.44,.07,20.16,.11,7.24,.04,14.52,.08,21.68-1,5.82-.88,12.05-2.43,17.35,.12,.71,.96-.14,2.42-1.27,2.79s-2.36,.04-3.52-.22c-8.57-1.89-17.41,.52-26.06,2.01-18.04,3.1-36.77,2.1-54.38-2.9-1.28-.36-2.61-.78-3.55-1.71s-1.35-2.55-.54-3.6,2.92-.72,1.74-.73Z"/><path class="cls-39" d="M466.38,497.37c-3.52,.86-5.98,4.8-5.21,8.34s4.63,6.11,8.2,5.43c6.84-1.29,8.69-11.4,15.33-13.49,3.85-1.21,7.98,.76,11.18,3.2s6.1,5.47,9.88,6.88c12.57,4.69,26.71-10.62,38.84-4.88,3.23,1.53,5.71,4.4,8.99,5.82s8.18,.41,8.75-3.13c.43-2.66-1.81-4.92-3.85-6.68-8.32-7.15-18.08-14.77-28.96-13.37-5.12,.66-9.94,3.33-15.1,3.25-4.72-.07-9.05-2.42-13.58-3.76-14.83-4.37-32.29,3.76-34.48,12.36Z"/><path class="cls-26" d="M477.38,555.79c-1.75-1.03-1.33-3.99,.4-5.05s4.03-.59,5.78,.44,3.15,2.55,4.79,3.75c4.91,3.6,12,3.91,17.21,.76,5.21-3.15,8.23-9.57,7.33-15.59,.61-.04,1.23-.07,1.84-.11,1.79,5-1.95,11.08,.76,15.64,1.91,3.21,6.25,4.08,9.94,3.5s7.14-2.24,10.83-2.82,8.03,.26,9.96,3.46c.74,1.24,1.03,2.84,.4,4.14-.73,1.49-2.41,2.21-3.95,2.8-7.35,2.85-14.7,5.7-22.06,8.55-3.24,1.25-6.61,2.53-10.07,2.25-3.48-.28-6.63-2.09-9.59-3.95-8.54-5.36-15.46-13.02-23.57-17.78Z"/></g><g id="Details"><path class="cls-37" d="M592.7,402.88c-3.2-6.28-1.18-13.08,1.67-18.87-.38,2.88,.69,5.92,2.79,7.93-1.21-5.77-.51-11.92,1.96-17.27l1.07,5.23c.22-7.52,2.34-14.99,6.1-21.51-.65,3-.51,6.17,.42,9.1,.18-6.1,4.23-11.91,9.89-14.18-1.32,2.64-1.65,5.76-.91,8.62,2.26-4.01,6.79-6.63,11.39-6.59-2.3,1.54-4.01,3.94-4.7,6.62,3.08-3.01,7.83-4.18,11.95-2.95-2.67,.2-5.02,2.5-5.29,5.16,4.63-3.29,10.9-4.13,16.24-2.19-3.58,.97-6.6,3.76-7.86,7.25,4.5-1.24,9.66,.3,12.74,3.8-2.45-.02-4.9,.46-7.16,1.4,5.69,1.26,10.94,4.39,14.77,8.78-2.82-1.36-6.09-1.74-9.15-1.07,4.93,2.64,8.59,8.1,7.97,13.66-.63,5.56-6.38,10.35-11.8,8.96,.96,1.81,1.65,3.77,2.01,5.79-2.09-1.49-4.18-2.98-6.27-4.48,1.21,1.07,2.48,2.26,2.78,3.84s-1.02,3.51-2.59,3.14c-1.1-.26-1.69-1.41-2.45-2.25-1.27-1.41-3.35-2.04-5.19-1.57,2.2,2.39,3.89,5.24,4.93,8.32-3.29-2.15-6.58-4.3-9.86-6.45,3.19,2.33,5.45,5.91,6.2,9.79-1.51-4.33-5.28-7.79-9.71-8.93,2.22,1.97,2.36,5.83,.28,7.95-1.22-3.94-3.8-7.45-7.19-9.79,2.21,3.26,3.18,7.35,2.66,11.26-2.55-5.01-5.7-9.7-9.38-13.94-1.56,3.01-2.3,6.45-2.12,9.83l-5.81-12.66c.56,5.07-.41,10.3-2.77,14.82-2.05-.54-3.08-2.95-3.01-5.07s.92-4.14,1.3-6.23,.14-4.53-1.5-5.88-4.82-.48-4.38,.61Z"/><path class="cls-29" d="M601.7,396.61s-.79-41.25,30.78-27.19c5.08,3.41,7.88,5.48,10.34,9.97,0,0,7.59,34.42-41.12,17.22Z"/><path class="cls-37" d="M458.65,399.34c2.69-14.85-.42-24.17-2.78-36-.36,3.59-1.17,7.14-2.43,10.53,.57-8.67-.06-17.41-1.87-25.91-.51,3.98-1.02,7.96-1.53,11.95-.03-7.67-3.93-16.31-11.42-17.93l5.17,9.53c-3.14-6.43-9.58-11.15-16.66-12.22l6.82,5.51c-6.57-3.35-14.29-4.36-21.5-2.83,1.95,.46,3.89,.91,5.84,1.37-7.07,.62-12.8,5.77-17.97,10.65,2.78-.95,5.57-1.9,8.35-2.85-8.9,4.55-15.9,12.67-19.1,22.13,1.19-1.69,2.67-3.17,4.36-4.36-.86,4.82-1.39,9.7-1.58,14.6,.57-2.93,1.81-5.73,3.59-8.12,0,5.31,.94,10.62,2.74,15.62,0-2.17,.75-4.34,2.08-6.05-.68,4.72-.43,9.57,.73,14.19,.14-2.89,1.56-5.7,3.79-7.53-.06,4.89,.89,9.8,2.78,14.31-.07-3.06,1.41-6.11,3.85-7.95,.02,1.8,.31,3.6,.87,5.32,.2,.62,.46,1.27,.96,1.68,1.5,1.24,3.67-.31,4.89-1.82s3.07-3.28,4.8-2.4c1.72,.88,1.42,3.43,2.38,5.11,1.05,1.84,3.77,2.31,5.56,1.18s2.58-3.5,2.14-5.57c1.48,3.46,2.97,6.92,4.45,10.37-.33-3.12-.1-6.3,.7-9.33,1.14,2.92,4.35,5.05,7.43,4.46s5.32-4.25,4.04-7.11c1.64,1.99,3.27,3.97,4.91,5.96,2.55-2.05,3.38-5.35,3.58-6.48Z"/><path class="cls-3" d="M400.44,369.44c.64-10.3,19.9-26.62,33.24-18.04,9.19,5.92,13.29,14.88,16.42,32.46,0,0-44.04,17.17-49.65-14.42Z"/><path class="cls-10" d="M404.53,378.95s-4.94-9.8,9.92-5.9,30.18,3.2,32.22,6.49-21.57,19.98-42.14-.59Z"/><path class="cls-20" d="M437.47,376.48l3.19-3.54s1.86,6.02-1.77,7.79c0,0-5.66,1.41-1.42-4.25Z"/><path class="cls-20" d="M407.25,367.86s5.34-3.17,6.37,0-.89-4.23,5.9-9.56c4.99-3.91-12.28,9.56-12.28,9.56Z"/><path class="cls-33" d="M415.54,364.61c-3.34,4.72-1.66,15.53,20.52,10.66l4.77-5.18s-10.12-26.9-25.29-5.48Z"/><path class="cls-20" d="M617.39,392.74s-2.33,4.32,.09,3.83c2.42-.49-.19-4.08-.09-3.83Z"/><path class="cls-33" d="M619.55,376.63s2.06-2.15,1.6-4.52c0,0,2.28,2.59,3.5,1.83,.55-.34,2.06-3.22,2.06-2.67,0,.78,1.02,3.12,1.66,3.78,0,0,1.61,2.46,3.83,1,0,0-2.7,3.6-1.03,4.94l-11.62-4.37Z"/><path class="cls-33" d="M615.25,382.76c-.56,3.41,1.3,10.99,10.87,8.51s6.15-14.39-.32-16.03-9.8,2.97-10.55,7.52Z"/><path class="cls-20" d="M619.55,390.32s3.61-5.87,7.16-6.71c0,0-2.24,8.52-5.36,11.06l-1.8-4.34Z"/><path class="cls-20" d="M418.87,378.49c.25,3.38,1.96,4.73,4.25,5.9s-4.5-9.28-4.25-5.9Z"/><path class="cls-7" d="M459.69,424.73s32.99-13.2,32.65-40.25c0,0,1.42,11.59,9.25,12.12s13.51-36.47,13.51-36.47c0,0-1.41,35.23,11.4,36.47s27.8-43.3,27.8-43.3c0,0,21.97,37.66,18.79,58.53s-11.23,52.18-30.69,27.99c-13.28-16.51-31.41-11.93-41.59-7.35-4.74,2.13-8.85,5.43-12.03,9.54-7.1,9.2-19.85,27.83-12.61,34.74,0,0-13.91,11.18-12.74,20.57,0,0-10.15,5.68-3.73,39.05,0,0-5.3,36.93-27.82,32.31,0,0-13.2-2.82-13.01,9.23,0,0-6.33-29.71,15.78-72.16l25.04-81.02Z"/></g><g id="Eyes"><path class="cls-2" d="M376.33,388.82l-3.71,23.37-1.77-4.73c1.19,7.72-1.31,15.92-6.6,21.66,.41-1.66,.21-3.46-.53-4.99,.89,5.95-1.17,12.27-5.39,16.57l.23-7.51c.89,4.42-1.89,8.93-5.64,11.42s-8.31,3.4-12.74,4.2c-7.79,1.4-15.7,2.64-23.58,1.91s-15.81-3.63-21.22-9.4c-3.85-4.11-6.2-9.4-9.61-13.89-6.33-8.33-15.89-13.41-24.58-19.23s-17.24-13.37-19.48-23.58c-2.39-10.87,3.22-22.26,11.44-29.76s18.74-11.91,29.01-16.19,20.77-8.75,28.6-16.86c4.4,7.89,14.13,10.74,22.88,12.97s18.48,5.32,22.57,13.37c2.32,4.57,2.33,9.91,3.18,14.96s3.07,10.49,7.79,12.49c2.6,1.1,5.74,1.04,7.92,2.84,1.88,1.55,2.58,4.19,2.37,6.62s-1.18,4.72-1.14,3.75Z"/><path class="cls-8" d="M244.55,264.13c-5.59,6.89-11.33,12.22-19.41,15.88,1.5,.13,1.53,.5,3.03,.64-1.94,2.02-7.09,5.92-7.09,7.68,6.55-2.74,7.46,3.56,10.55,6.14-1.74,.24-3.35,1.27-4.28,2.75,2.81-.28,5.62-.55,8.43-.83-8.47,8.72-13.28,20.89-13.06,33.04,1.57-1.87,3.15-3.74,4.72-5.61-2.85,8.64-2.08,18.4,2.07,26.49,.72-1.89,1.45-3.79,2.17-5.68,1.6,5.34-.24,11.54-4.49,15.14,1.43,1.87,4.62,1.97,6.17,.2-1.28,7.37-2.56,14.74-3.84,22.11,2.05-1.86,4.1-3.72,6.15-5.58-6.22,9.22-3.09,23.38,7.68,28.7l.22,7.36c1.53-1.08,2.65-2.74,3.06-4.57l.81,8.06c1.62-.94,2.82-2.56,3.25-4.38l3.16,8.31,3.47-3.28c3.24,5.11,5.39,10.91,6.28,16.89l1.65-6.04c.78,7.77,5.73,15,12.7,18.54-1.51-1.26-2.36-3.28-2.2-5.24l11.24,10.63-3.5-7c2.45,5.86,8.59,9.98,14.95,10.03l-2.41-5.76c7.85,6.63,19.18,8.88,28.96,5.74,5.22-1.67,10.32-4.79,15.74-4,1.68,.25,3.42,.86,5.03,.3s2.44-3.15,.91-3.89c-1.79-.77-3.96-.57-5.59,.5-.39-2.13-.78-4.27-1.17-6.4-1.1,1.56-1.31,3.7-.54,5.45-4.04-1.65-8.36-2.62-12.73-2.85,2.07,.98,3.53,3.14,3.67,5.42-2.61-3.29-6.86-5.22-11.06-5.02,1.25,1.37,1.85,3.31,1.6,5.15-3.98-.94-7.22-4.45-7.86-8.49-1.38,2-1.36,4.86,.04,6.84-10.31-1.34-18.4-12.09-16.83-22.37-1.86,.74-3.07,2.85-2.77,4.82-1.28-6.12-1.59-12.43-.93-18.65l-2.57,3.6c.52-6.39-5.55-12.48-11.94-11.99l.73,2.88c-2.65-3.55-5.96-6.6-9.72-8.95l-1.38,5.9c.38-3.41-1.68-6.94-4.83-8.3l-1.87,3.55c-.59-2.82-.22-5.84,1.03-8.44l-5.83,5.05c-1.71-3.31-1.66-7.47,.13-10.75l-3.12,6.34c-2.96-2.53-4.3-6.8-4.03-10.05-3.18-2.85-3.4-8.38-.48-11.48-1.44,.18-2.85-1.25-2.65-2.69-.79,1.39-1.59,2.78-2.38,4.18,.46-10.07,1.73-20.1,3.78-29.96-4.02,1.03-6.65,5.77-5.4,9.72-2.15-6.65-.13-14.46,4.97-19.24-1.74,.94-3.48,1.87-5.22,2.81-.05-5.22,3.03-9.95,6.52-13.83s7.55-7.34,10.2-11.83c6.09-10.3,3.52-23.36,.27-34.88-.95-3.38-2.26-7.14-5.44-8.64-2.49-1.18-5.73-.46-8.74-.16Z"/><path class="cls-1" d="M239.08,367.35c5.75,2.5,12.92,1.32,17.57-2.89l-3.22,3.97c4.09-1.7,7.7-4.54,10.32-8.11,.15,1.84-.32,3.72-1.31,5.27,4.45-3.11,8.27-7.12,11.16-11.72,.98,2.54,1.49,4.11,.21,6.45,9.29-5.97,11.23-15.92,18.07-24.27,1.55-1.89,3.15-4.57,1.74-6.56-4.85,5.41-11.07,9.57-17.92,11.98,.71-11.29-8.52-22.31-19.76-23.59-11.24-1.28-22.71,7.38-24.56,18.54,1.24-1.87,3.11-3.3,5.24-4.01-3.5,3.31-5.41,8.24-5.05,13.05,1.97-3.65,5.07-6.67,8.76-8.55-.13,5.67-2.69,11.25-6.9,15.06,2.53-.41,4.95-1.51,6.91-3.16-1.04,3.66-3.35,6.95-6.43,9.18,2.58,.33,5.29-.54,7.19-2.31-1.57,3.89-4.31,7.29-7.77,9.65,3.18,1,6.36,2.01,5.76,2.02Z"/><path class="cls-22" d="M262.94,255.24c-5.97,.39-12.05-1.09-17.18-4.17,1.39,2.87,3.94,5.16,6.95,6.23-5.6,.93-11.38,.73-16.9-.58,2.06,2.17,4.75,3.73,7.65,4.45-4.41,1.68-8.52,4.13-12.1,7.21,5.11-.98,10.51-.37,15.28,1.71-2.32,.89-4.39,2.42-5.93,4.38,2.58-2.42,6.12-3.79,9.66-3.74l-4.38,5.27,9.3-2.7-5.81,8.01c2.21-1.91,5.24-2.83,8.14-2.49-3.62,4.29-6.66,9.05-9.04,14.13,1.47-2.38,4-4.09,6.76-4.54-3.47,3.29-5.89,7.67-6.84,12.36-2.45,3.62-5.79,6.64-9.65,8.7,3.09,1.07,6.69,.46,9.26-1.56-2.29,3.28-5.35,6.02-8.86,7.94,4.49-.86,8.74-2.91,12.2-5.89-1.85,3.86-4.61,7.29-7.99,9.92l7.74-3.95c-1.37,3.58-3.74,6.77-6.78,9.1l8.34-2.32-3.31,5.36c2.55-1.94,6.05-2.58,9.12-1.66-1.36,1.56-2.73,3.13-4.09,4.69,2.54-1.29,5.08-2.58,7.63-3.88-1.22,2-2.44,3.99-3.65,5.99l11.23-1.58-3.94,5.5,7.01-4.26c-.65,3.4-2.29,6.61-4.67,9.14l10.56-5.03c-.03,2.47-1.04,4.91-2.76,6.67l7.42-5.42c-.94,2.17-1.89,4.33-2.83,6.5,9.49-2.86,20.08-6.65,24.14-15.69,3.5-7.8,.89-16.84-1.76-24.97-3.9-11.97-8.07-24.4-16.84-33.43-6.87-7.07-16.02-11.46-23.07-15.37Z"/><path class="cls-9" d="M304.5,328.32c-1.46,4.77-3.71,9.3-6.64,13.34,4.77-1.34,9.28-3.6,13.21-6.61-1.36,2.7-3.38,5.07-5.84,6.85,3.56-.46,7-1.79,9.94-3.84-1.14,3.26-3.38,6.13-6.26,8.04,3.52-.99,6.83-2.75,9.61-5.12-.42,2.57-1.65,5-3.47,6.86,4.18-3.1,8.35-6.21,12.53-9.31-1.69,3.91-3.38,7.81-5.07,11.72,1.83-1.9,3.66-3.8,5.49-5.7-.79,1.5-1.58,2.99-2.37,4.49,1.06-.8,2.13-1.61,3.19-2.41-.63,.97-1.26,1.94-1.9,2.91,1-.45,2.01-.9,3.01-1.35-.23,1.24-.45,2.48-.68,3.72,3.97-1.55,7.44-4.35,9.79-7.9-.07,4.17-.72,8.33-1.94,12.32,3.37-2.06,6.34-4.76,8.7-7.92-.08,8.16-5.54,16.01-13.16,18.94,3.58,.54,7.41-1.33,9.18-4.49-1.91,3.17-4.95,5.64-8.44,6.87,4.02,.42,8.21-1.21,10.89-4.24-.63,4.45-3.82,8.44-8.03,10.03,2.1,.66,4.45,.47,6.42-.51-1.71,1.48-3.42,2.95-5.13,4.43,.86-.84,2.25-1.08,3.34-.57-1.05,1.8-2.09,3.61-3.14,5.41,1.27,.24,2.63-.13,3.61-.97-.59,2.48-1.17,4.96-1.76,7.45,1.25-1.94,2.49-3.89,3.74-5.83-.55,5.2,.76,10.58,3.64,14.94-1.32-2.36-1.69-5.24-1-7.85,.56,5.19,3.12,10.13,7.04,13.57-2.27-3.5-2.93-7.99-1.77-11.99,.11,2.95,1.17,5.85,2.99,8.17-.5-2.29-.2-4.74,.83-6.84,.35,2.11,1.58,4.06,3.34,5.29-.31-3.16,.37-6.42,1.93-9.19,1.72,1.65,2.86,3.9,3.27,6.27l-.33,1.84,3.68-8.93c.8,2.12,.91,4.49,.3,6.67,3.19-1.54,5.69-4.43,6.77-7.8l-.67,6.5c6.15-7.56,6.2-18.19,6.3-27.93s1.03-20.57,8.19-27.17c2.73-2.52,6.25-4.28,8.2-7.44,3.34-5.42,.76-12.33-.42-18.58-1.55-8.27-.38-17.03,3.31-24.6,1.13-2.32,2.53-4.74,2.22-7.31-.45-3.72-4.24-6.03-7.78-7.23-9.9-3.34-20.9-2.27-30.71,1.31s-18.57,9.56-26.77,16.03c-13.31,10.52-27.36,22.38-31.43,35.68Z"/><path class="cls-11" d="M278.82,327.2l-11.12,10.25c7.36-.84,14.45-3.86,20.16-8.57l-6.19,10.45c16.53-1.3,28.65-17.71,45.1-19.85,5.22-.68,10.69,.12,15.63-1.69,8.4-3.08,12.46-12.58,14.2-21.36,3.74-18.82,.97-38.87-15.07-62.24-12,6.43-27.12,6.63-39.29,.53,2.8,4.66,8.03,7.77,13.46,8-9.08,5.63-21.51,5.24-30.23-.93,1.78,4.41,4.81,8.31,8.64,11.12-9.65-1.85-18.87-5.95-26.71-11.87,1.14,5.83,5.09,11.05,10.39,13.72-8.8-1.05-17.18-5.28-23.26-11.73,1.29,10.04,7.66,19.3,16.59,24.07-1.98,5.01-6.74,8.82-12.06,9.65,5.21,.47,10.57-.71,15.1-3.33-2.96,7.66-8.67,14.23-15.84,18.23,6.91,.93,14.19-1.54,19.1-6.48-4.1,10.09-12.34,18.42-22.38,22.62,6.57,1.61,13.89-.24,18.92-4.77-2.57,6.3-8.19,11.28-14.75,13.08,7.27,1.26,15.07-.97,20.57-5.88-6.29,6.87-14.01,12.42-22.52,16.19,9.75,1.93,20.01,1.21,29.39-2.07"/><path class="cls-1" d="M342.6,237.49c-9.36,5.88-20.26,8.8-30.08,13.87s-19.12,13.36-20.62,24.31c-.6,4.42,.12,8.99-1.01,13.3s-5.18,8.46-9.51,7.4c2.54,2.21,6.45,2.19,9.53,.84s5.53-3.8,7.89-6.19c-1.46,6.58-5.55,12.54-11.16,16.27,4.43-1.49,8.46-4.15,11.56-7.65-.73,3.77-2.52,7.33-5.11,10.17,5.1-4.22,9.11-9.75,11.54-15.91,1.14,2.88,.42,6.4-1.77,8.59,3.82-3.89,6.97-8.44,9.28-13.38,.55,2.69-.46,5.64-2.54,7.44,3.48-4.5,6.28-9.54,8.27-14.87,.57,3.15-.2,6.52-2.07,9.12,3.88-3.69,6.33-8.83,6.77-14.17,.37,3.85-.82,7.83-2.59,11.57,10.59-9.15,18.42-21.44,22.26-34.9,1.55-5.44,2.17-12.06-.64-15.81Z"/><path class="cls-24" d="M448.74,197.16s-48.3,4.34-48.3,36.13c0,0,12.41-4.34,9.42,12.57s-25.82,59.01-16.49,76.57c2.33,4.39,2.72,7.18,1.96,9.18-2.26,5.98-14.76,4.77-15.71,17.92-1.26,17.53,4.5,9.87,4.5,9.87,0,0-1.5-10.54,11.6-17.33s7.68-38.37,13.57-43.84c9.09-8.46-.07-17.05,19.42-31.55s-33.3-21.91,20.03-69.5Z"/><path class="cls-38" d="M374.09,277.7c1.72,4.04,5.06,7.36,9.1,9.06-1.28-3.21-1.2-6.94,.22-10.1-.07,3.32,1.56,6.63,4.23,8.61-.13-2.92,.46-5.88,1.71-8.52,.16,2.86,1,5.69,2.45,8.17l3.77-8.53,1.02,6.91c4.77-7.49,9.59-15.08,12.42-23.5,2.83-8.42,3.51-17.89,.01-26.06-1.09-2.55-2.58-4.96-3.23-7.65-1.53-6.38,3.2-12.48,8.43-16.43s10.69-6.29,17.11-7.62,13.01-2.44,18.82-5.46c-2.84-1.71-4.21-5.54-3.08-8.66-1.93,2.57-3.29,5.56-3.95,8.71-2.58-2.2-4.05-5.65-3.84-9.04l.41,10c-3.76-1.55-6.78-4.81-8.04-8.67-.11,3.16,.69,6.34,2.27,9.08-4.19-1.17-7.71-4.5-9.1-8.62,.03,3.9,1.99,7.74,5.12,10.06-4.22-1.89-9.19-1.49-13.53,.11s-8.17,4.32-11.89,7.06c-10.86,8.01-21.5,16.8-28.7,28.21s-10.55,25.95-5.95,38.64c.59,1.64,1.36,3.29,2.69,4.4s3.38,1.55,1.54-.17Z"/><path class="cls-22" d="M352.91,326.67l1.88,2.96c.92-5,2.18-9.93,3.77-14.76-.89,3.07-.78,6.42,.32,9.42,.3-6.26,1.23-12.5,2.79-18.57,.56,2.84,1.11,5.68,1.67,8.52-.42-7,1.57-14.12,5.57-19.88-1.87,4.5-1.94,9.72,.14,14.09,.44-2.24,1.38-4.38,2.74-6.22,.03,2.34,.48,4.67,1.32,6.85,.29-1.68,1.02-3.28,2.1-4.6-.26,2.13,.55,4.37,2.11,5.85,.44-7.24-.34-14.55-2.31-21.53,1.25,2.4,2.49,4.8,3.74,7.2,.24-6.6-1.51-13.26-4.96-18.89,.55,1.52,1.1,3.04,1.88,4.2-3.54-4.62-1.16-11.44-3.04-16.95-1.82-5.34-7.36-8.54-12.82-10.01-4.42-1.19-9.16-1.55-13.55-.26s-8.37,4.39-7.74,5.58c-3.83,6.37-8.98,11.93-15.01,16.52,3.67-.55,7.14-2.3,9.77-4.92-2.75,5.11-6.75,9.53-11.54,12.79,4.78-.86,9.22-3.51,12.25-7.31-2.98,6.35-7.86,11.79-13.86,15.43,4.51-1.4,8.59-4.18,11.54-7.87-1.6,5.63-5.15,10.7-9.9,14.12,3.83-2.4,7.31-5.37,10.29-8.77-3.15,5.26-7.19,9.99-11.88,13.95,5.22-3.38,9.97-7.47,14.01-12.18-1.09,4.49-3.31,8.69-6.41,12.11,4.21-3.18,8.42-6.37,12.62-9.55-1.1,3.81-3.21,7.32-6.06,10.07,2.66-1.03,5.32-2.05,7.98-3.08-1.92,4.58-3.85,9.17-5.77,13.75,1.74-2.64,3.78-5.1,6-7.25-.16,5.46-1.47,10.88-3.84,15.81,2.75-3.18,4.92-6.86,6.36-10.81-.1,6.12-2.86,11.84-5.57,17.33,3.09-2.49,5.42-5.92,6.58-9.71,1.98,6.55-.53,13.53-3.01,19.91,3.42-2.85,5.52-7.21,5.61-11.66,1.55,3.14,2.54,6.57,2.9,10.05"/><path class="cls-17" d="M393.84,227.26c3.49-6.68,7.04-13.45,12.12-19.03s11.94-9.92,18.28-9.8c-5.54-4.51-9.55-10.85-11.25-17.79-1.7,4.36-.45,9.71,3.02,12.85-6.73-2.81-13.78-4.86-20.98-6.1,3.73,1.58,6.97,4.31,9.16,7.72-5.64-.67-11.15-2.36-16.2-4.97,3.21,3.24,6.41,6.48,9.62,9.72-6.81-2.49-14.28-3.17-21.43-1.97,4.91,.42,9.64,2.64,13.1,6.14-5.26,.7-10.74-.35-15.37-2.93,4.05,2.81,8.1,5.61,12.15,8.42-7.25-.3-14.46-1.63-21.32-3.86,3.55,3.34,7.95,5.78,12.67,7.02-5.64,3.2-13.51-2.26-19,1.07,2.43,.51,4.69,1.8,6.36,3.65-6.14-1.12-12.51-1-18.6,.17,3.49,1.38,6.47,4,8.29,7.28-5.49,.38-11.1-1.79-14.8-5.99,1.77,5.94,6.57,10.9,12.45,12.87-7.02,2.09-14.19-5.68-21.21-3.6,4.42,1.45,8.27,4.58,10.33,8.65-2.08,3.57-5.2,6.53-8.86,8.56,2.66,1.06,5.85,.63,8.14-1.08-1.04,5.1-3.41,9.93-6.82,13.86,1.62-.78,3.23-1.55,4.85-2.33-2.26,5.58-3.42,11.61-3.38,17.64-.08-3.45,1.15-6.92,3.39-9.55-.61,4.75-.98,9.53-.79,14.35,.92-2.54,2.27-4.92,3.98-7.01-.23,1.6-.45,3.21-.68,4.81,4.19,1.43,8.98,1.01,12.96-1.11-.44,1.93-1.79,3.55-3.38,4.71s-3.44,1.93-5.27,2.69c6.76-1.48,12.8-6.01,16.11-12.09,.86,2.14,.69,4.68-.44,6.69,4.72-3.84,7.89-9.54,8.53-15.58,.73,3.44,.58,7.07-.45,10.44,3.37-6.76,4.43-14.65,2.86-21.97,.33-3.84,3.17-7.02,6.35-9.2s6.8-3.65,9.93-5.9,5.85-5.58,5.58-7.45Z"/><path class="cls-2" d="M719.39,495.61c5.29-2.86,10.18-6.95,14.06-6.36s8.91,3.11,12.82,2.74c6.8-.64,12-4.91,17.15-9.39,7.6-6.6,15.42-13.62,23.14-20.07,10.05-8.4,17.13-19.77,23.29-31.32,3.97-7.44,7.73-15.58,6.75-23.96-1.39-11.97-12.25-20.89-23.68-24.72-11.42-3.83-23.72-3.86-35.62-5.76-6.82-1.09-13.64-2.8-20.53-2.3-16.78,1.22-29.83,11.01-46.6,12.33-4.48,8.47-6.6,22.7-4.79,32.13-.61-2.53-.02-5.32,1.56-7.39-.6,8.17-.22,16.42,1.13,24.51,1.28-.95,2.12-2.46,2.24-4.05-.31,5.62-.61,11.24-.92,16.87,1.6,.3,3.34-.58,4.05-2.04,.08,4.78-.41,9.57-1.46,14.23,.61-.45,.71-.07,1.32-.52,1.94,5.83,5.36,10.51,9.08,15.39-.53-1.57-1.07-3.15-1.6-4.72,2.45,3.55,4.89,7.09,7.34,10.64l.55-4.04c1.78,4.34,4.84,8.15,8.7,10.83,.12-.73,.7-1.37,1.42-1.56,2.39-.71,2.82,5.94,.59,8.53Z"/><path class="cls-8" d="M761.3,252.42s-2.03-.18-1.29-.18l19.15-2.94c-2.87,.89-5.45,2.7-7.27,5.1,4.02-2.82,9.61-3.23,13.99-1.02l-8.88,7.15c3.9-1.21,8.21-1.03,12,.51-2.91,.07-5.63,2.32-6.24,5.16,6.5,2.65,14.18,2.18,20.32-1.22-1.36,2.68-3.68,4.87-6.44,6.07,7.61,.59,15.37-.99,22.15-4.5-1.27,3.55-4.15,6.49-7.67,7.83,6.82-.12,13.64-.24,20.46-.37-2.29,3.33-6.04,5.61-10.04,6.13,6.13-.4,12.37,1.36,17.39,4.9-3.15-.63-6.57,1.77-7.05,4.94,3.73,5.47,8.55,10.19,14.1,13.79-2.93,1.24-6.55,.64-8.94-1.47,4.39,4.08,6.29,10.65,4.76,16.45,0-2.81-2.77-5.29-5.56-4.97,3.32,3.58,4.71,8.84,3.61,13.59-1.08-2.83-2.97-5.35-5.4-7.17,2.69,6.25,4.51,12.88,5.4,19.63-1.88-1.93-3.75-3.86-5.63-5.78,3.41,3.6,3.2,9.21,2.78,14.15-.39,4.57-.79,9.14-1.18,13.71-.43,5.01-.2,11.27,4.33,13.45-3.63,.35-7.33-2.21-8.29-5.73,1.07,4.3,1.55,9.22,3.22,12.91-1.86-1.8-3.36-4.27-4.08-7.34-4.16,11.79-7.07,25.68-4.5,37.91-2.15,.02-4.17-1.7-4.51-3.82,1.33,4.07,1.28,8.58,1.23,14.17-7.94,7.9-12.69,18.91-12.98,30.1-1.98-1.9-3.09-4.66-2.99-7.4-2.08,3.97-3.1,8.49-2.92,12.97-1.75-1.12-2.88-3.14-2.94-5.21-1.57,9.52-6.59,18.44-13.92,24.71,1.67-2.25,2.53-5.09,2.37-7.89-3.57,4.15-6.49,8.84-8.63,13.88l-1.75-6.05-2.6,9.24-6.67-3.44c1.43,2.81-.29,6.73-3.33,7.56l-3.53-3.83-1.49,7.51c-1.28-2.22-2.57-4.44-3.85-6.67-4.43,3.62-10.49,5.16-16.11,4.1-5.19-.98-14.26-1.6-18.77,1.15-.71-1.36,7.21-5.52,2.45-6.24,1.83-2.15,13.53-2.84,20.68-.99-1.66-.53-2.89-2.17-2.93-3.91,3.4,1.68,6.79,3.35,10.19,5.03,1.02-5.14,3.21-10.04,6.36-14.23-2.41,3.09-2.49,7.78-.18,10.94-1.2-5.94,3.42-12.4,10.17-11.55,6.28-2.74,9.58-10.84,7-17.19,1.8,2.54,2.65,5.74,2.34,8.83,1.95-6.19,3.12-12.63,3.5-19.11l4.1,6.16c3.12-3.6,4.72-8.47,4.33-13.22l4.05,4.71c2.64-4.71,3.16-8.79,4.1-14.11,.59,4.7-.33,5.8,1.04,8.96,.26-10.27,3.01-15.26,7.96-22.85-1.72,2.42,.38,3.68,.28,6.65,5.11-6.2,7.35-13.33,1.5-18.93-.06-.19-2.28-3.03-2.34-3.46,3.94,1.67,8.82,3.22,8.59,6.94,.82-3.58-2.39-6.92-5.1-9.4-.57-.32-7.76-7.95-5.99-6.09-7.23-29.09-32.38-9.75-44.47-37.18-.89-2.02,41.55-45.28,39.67-46.44-2.29-1.41-5.17-1.12-7.84-1.41-9.75-1.07-16.51-9.92-22.06-18.02-4.52-6.6-9.04-13.2-13.57-19.8-2.11-3.08-4.32-6.49-4.02-10.22s4.57-7.18,8.43-5.66Z"/><path class="cls-22" d="M817.23,310.87c-2.25,2.48-6.09-.71-7.14-1.37,4.45,4.92,7.11,11.42,7.4,18.04-.77-2.43-2.6-4.5-4.92-5.56,4.34,7.19,6.57,15.64,6.33,24.04-.94-2.24-1.89-4.48-2.83-6.72-1.15,5.19-1.12,10.63,.08,15.81-.05,2.69,.76,5.39,2.28,7.62-1.02-.83-2.04-1.67-3.05-2.5,2.98,4.42,4.23,9.97,3.45,15.25-.42-2.99-1.86-5.82-4.03-7.91,2.13,4.9,2.66,10.47,1.48,15.68l-2.73-6.98c1.24,4.77,1.47,9.79,.66,14.65-1.54-2.92-3.08-5.83-4.62-8.75,1.7,3.91,1.36,8.63-.87,12.26-.2-4.26-2.33-8.38-5.69-11.01-.62,2.64-.12,5.51,1.35,7.79-2.83-1.18-5.2-3.43-6.53-6.2-.15,2.34,.39,4.72,1.54,6.77-1.98-1.81-3.96-3.62-5.94-5.43-.76,3.47,.36,7.29,2.86,9.8-3.42-2.7-6.12-6.29-7.77-10.32-.35,4.41-.7,8.81-1.05,13.22-.89-5.06-2.74-9.96-5.44-14.34,1.09,3.91,.15,8.32-2.42,11.45,.74-2.83,.61-5.89-.38-8.65-1.98,3.67-3.97,7.34-5.95,11.01,.23-4.77-.63-9.59-2.48-13.99-1.3,2.36-1.23,5.41,.17,7.71l-4.95-4.38,1.07,5.08c-2.42-1.06-4.58-2.7-6.27-4.73,1.01,2.71,2.02,5.41,3.03,8.12-4.45-2.37-7.91-6.55-9.41-11.37,0,3.55,.36,7.1,1.09,10.57-4.02-3.43-7.06-8.01-8.65-13.05-.65,2.47,.27,5.28,2.25,6.89-4.48-.47-8.46-4.04-9.41-8.45-2.55,5.03-8.41,3.99-12.15,1.44-7.92-5.4-11.85-15.3-12.21-24.87-.37-9.58,2.35-18.98,5.34-28.09,6.41-19.54,15.15-39.81,32.31-51.14,3.62-2.39,8-4.37,12.18-3.22,3.3,.91,5.77,3.6,8.05,6.16l8.7,9.79c4.03-2.14,6.99-.27,9.57,1.51,0,0,23.21,19.66,25.71,18.36Z"/><path class="cls-9" d="M712.77,337.69c-.1,10.54,5.48,20.97,14.29,26.75-2.43,1.38-5.66,1.2-7.93-.43,3.5,4.41,8.31,7.77,13.65,9.54-4.76,.76-9.8-.39-13.75-3.14,4.12,4.86,9.72,8.44,15.86,10.16-2.91,4.38-8.63,6.68-13.76,5.55,1.72,6.38-.21,13.61-4.9,18.27-.04-3.4-.09-6.8-.13-10.2,.41,6.66-2.68,13.44-7.98,17.49,2.4-3.96,3.06-8.93,1.78-13.38-1.75,6.73-3.5,13.47-5.26,20.2l-3.15-17.21c-2.46,6.17-3.01,13.07-1.58,19.55-4.94-4.99-7.57-12.17-7.02-19.17l-.67,16.36c-5.72-9.93-7.89-21.85-6.03-33.16-2.89,6.04-4.2,12.84-3.77,19.52-2.05-10.36-1.25-21.28,2.29-31.23-1.58,3.11-4.32,5.6-7.56,6.88,3.63-4.68,5.74-10.5,5.97-16.41,.11,3.54-2.02,7.05-5.21,8.6,2.5-5.74,2.87-12.39,1.01-18.37l-2,9.52c-6.13-8.49-14.84-20.7-9.47-29.69,5.37-8.99,25.26-13.21,34.37-8.04,5.32,3.02,8.71,8.47,10.97,12.03Z"/><path class="cls-11" d="M657.77,251.84c.74,8.73,1.49,17.45,2.23,26.18,.88-1.83,1.76-3.67,2.63-5.5,.63,5.17-.16,10.47-2.28,15.35,2.59-1.08,4.64-3.05,5.59-5.36,.26,5.33-.66,10.69-2.71,15.73,2.37-2.21,4.73-4.41,7.1-6.62,3.02,9.82,.25,20.78-7.25,28.69,2.1-1.24,4.19-2.49,6.29-3.73-1.34,4.75-4.02,9.22-7.76,12.94,2.98-.04,5.91-1.35,7.62-3.41-4.52,7.54-4.64,16.87-.33,24.5-1.62-3.36-1.6-7.26,.05-10.6,1.22,2.65,2.43,5.3,3.65,7.95-.73-3.39-.3-6.95,1.23-10.14,1.4,3.18,2.8,6.37,4.21,9.55,2.21-4.38,4.43-8.75,6.64-13.13l1.69,16.84,7.69-10.29c.55,3.22,.04,6.57-1.47,9.57,4.46-2.75,8.17-6.38,10.74-10.52-.68,4.73-1.35,9.46-2.03,14.19,4.08-4.73,8.17-9.46,12.25-14.19,1.86,2.98,2.49,6.5,1.75,9.81,1.31-4.68,3.34-9.22,6.02-13.46,1.43,2.11,2.86,4.22,4.29,6.33,1.03-3.85,2.06-7.7,3.09-11.55,2.65,2.86,7.96,3.63,11.59,1.68-4.42-1.94-6.8-6.69-5.38-10.73,.86,3.64,7.94,4.51,9.98,1.22-3.87-3.41-5.45-8.57-4.33-12.56,4.88,2.56,12.08,1.13,15.09-3.01-1.37,.93-3.46,.99-4.9,.15s-2.13-2.52-1.34-3.82c.98-2.01,3.52-3.39,6.08-3.31s4.97,1.62,5.77,3.68c.25-4.3-2.51-8.63-6.89-10.81,1.66,1.18,3.31,2.35,4.97,3.53-2.16-2.44-3.47-5.41-3.72-8.45l4.97,4.61-3.85-12.43c1.19,1.94,3.51,3.35,6.05,3.69-.14-9.5-3.7-18.95-10.07-26.77,6.24-4.05,12.83-7.72,19.71-10.96-5.41-.28-10.91,1.83-14.23,5.46-1.06-3.42,1.53-7.36,5.53-8.39-5.75,.67-11.09,3.52-14.3,7.62,.54-.84,1.09-1.68,1.63-2.51-18-3.16-36-6.32-54-9.48-7.32-1.28-14.97-2.56-22.19-.89-9.47,2.19-17.46,9.8-17.16,13.34Z"/><path class="cls-1" d="M722.72,245.54c10.21-.14,19.19,2.08,30.64-.41-3.09,1.25-6.19,2.5-9.28,3.76,4.82,2.8,11.18,2.73,15.94-.18-4.68,4.72-11.16,7.63-17.8,7.98,3.02,4.15,8.64,6.23,13.63,5.03-4.17,3.69-10.38,4.91-15.63,3.07,1.19,4.01,4.86,7.16,9,7.73-4.3-.34-8.6-.67-12.9-1.01,2.61,3.85,5.22,7.71,7.83,11.56-3.13-1.49-4.65-5.77-8.22-6.04,2.47,4.65,3.1,10.25,1.72,15.33,.46-2.82-1.39-5.84-4.12-6.69-.16,5.32,2.39,10.65,6.62,13.86-3.79,.05-7.59-1.06-10.77-3.13,4.76,3.4,9.52,6.81,14.27,10.21-3.99,1.88-8.79,1.95-12.85,.2,3.94,3.09,6.65,7.71,7.44,12.65-5.06-6.06-11.61-10.86-18.9-13.87,3.17,4.07,.52,11.13-4.54,12.11,3.77-5.43-.52-6.48-.77-9.72-.06,4-2.22,7.92-5.59,10.09,3.11-6.94,3.32-15.12,.58-22.21-.61,2.86-1.22,5.72-1.83,8.58,.59-7.05-.64-14.24-3.52-20.7,1.57,4.95,.45,10.67-2.87,14.67,.52-7.78-.66-15.66-2.85-23.31-2.48-3.61-.64-8.8,2.62-11.72s7.57-4.29,11.5-6.23,7.83-4.88,8.78-9.15c.19-.86,.28-1.8,.89-2.44s1.95-.56,.99-.06Z"/><path class="cls-24" d="M624.01,214.94s48.3,4.34,48.3,36.13c0,0-12.41-4.34-9.42,12.57,2.98,16.91,15.41,58.81,6.09,76.37-2.33,4.39,7.69,7.38,8.44,9.37,2.26,5.98,2.9,1.37,5.69,14.25,5.53,25.51,4.6,55.1,4.98,72.43,.43,19.82-11.22-63.6-11.22-63.6,0,0,2.99-12.35-10.12-19.14-13.37-6.92-.55-30.08-6.44-35.55-9.09-8.46,3.22-18.81-16.27-33.31-19.49-14.5,33.3-21.91-20.03-69.5Z"/><path class="cls-38" d="M698.86,295.04c-1.72,4.04-5.06,7.36-9.1,9.06,1.28-3.21,1.2-6.94-.22-10.1,.07,3.32-1.56,6.63-4.23,8.61,.13-2.92-.46-5.88-1.71-8.52-.16,2.86-1,5.69-2.45,8.17l-3.77-8.53c-.34,2.3-.68,4.61-1.02,6.91-4.77-7.49-9.59-15.08-12.42-23.5s-3.51-17.89-.01-26.06c1.09-2.55,2.58-4.96,3.23-7.65,1.53-6.38-3.2-12.48-8.43-16.43-5.23-3.95-10.69-6.29-17.11-7.62s-13.01-2.44-18.82-5.46c2.84-1.71,4.21-5.54,3.08-8.66,1.93,2.57,3.29,5.56,3.95,8.71,2.58-2.2,4.05-5.65,3.84-9.04l-.41,10c3.76-1.55,6.78-4.81,8.04-8.67,.11,3.16-.69,6.34-2.27,9.08,4.19-1.17,7.71-4.5,9.1-8.62-.03,3.9-1.99,7.74-5.12,10.06,4.22-1.89,9.19-1.49,13.53,.11s8.17,4.32,11.89,7.06c10.86,8.01,21.5,16.8,28.7,28.21s10.55,25.95,5.95,38.64c-.59,1.64-1.36,3.29-2.69,4.4s-3.38,1.55-1.54-.17Z"/><path class="cls-17" d="M674.12,245.08c-3.49-6.68-7.04-13.45-12.12-19.03-5.08-5.58-11.94-9.92-18.28-9.8,5.54-4.51,9.55-10.85,11.25-17.79,1.7,4.36,.45,9.71-3.02,12.85,6.73-2.81,13.78-4.86,20.98-6.1-3.73,1.58-6.97,4.31-9.16,7.72,5.64-.67,11.15-2.36,16.2-4.97-3.21,3.24-6.41,6.48-9.62,9.72,6.81-2.49,14.28-3.17,21.43-1.97-4.91,.42-9.64,2.64-13.1,6.14,5.26,.7,10.74-.35,15.37-2.93-4.05,2.81-8.1,5.61-12.15,8.42,7.25-.3,14.46-1.63,21.32-3.86-3.55,3.34-7.95,5.78-12.67,7.02,5.64,3.2,13.51-2.26,19,1.07-2.43,.51-4.69,1.8-6.36,3.65,6.14-1.12,12.51-1,18.6,.17-3.49,1.38-6.47,4-8.29,7.28,5.49,.38,11.1-1.79,14.8-5.99-1.77,5.94-6.57,10.9-12.45,12.87,7.02,2.09,14.19-5.68,21.21-3.6-4.42,1.45-8.27,4.58-10.33,8.65,2.08,3.57,5.2,6.53,8.86,8.56-2.66,1.06-5.85,.63-8.14-1.08,1.04,5.1,3.41,9.93,6.82,13.86-1.62-.78-3.23-1.55-4.85-2.33,2.26,5.58,3.42,11.61,3.38,17.64,.08-3.45-1.15-6.92-3.39-9.55,.61,4.75,.98,9.53,.79,14.35-.92-2.54-2.27-4.92-3.98-7.01,.23,1.6,.45,3.21,.68,4.81-4.19,1.43-8.98,1.01-12.96-1.11,.44,1.93,1.79,3.55,3.38,4.71s3.44,1.93,5.27,2.69c-6.76-1.48-12.8-6.01-16.11-12.09-.86,2.14-.69,4.68,.44,6.69-4.72-3.84-7.89-9.54-8.53-15.58-.73,3.44-.58,7.07,.45,10.44-3.37-6.76-4.43-14.65-2.86-21.97-.33-3.84-3.17-7.02-6.35-9.2-3.18-2.18-6.8-3.65-9.93-5.9s-5.85-5.58-5.58-7.45Z"/><path class="cls-7" d="M518.17,314.71s-31.3-21.39,2.09-54.26c0,0,6.78,5.74,12,3.13l5.22-2.61s16.17-8.35,18.26,7.3,17.99,70.96-25.44,89.22c0,0-26.73-10.43-13.69-25.57,0,0,19.83-12,1.57-17.22Z"/><path class="cls-7" d="M578.34,520.14s3.52-29.75,17.61-6.27-8.8,45.37-8.8,45.37c0,0-26.41,1.23-8.8-39.09Z"/></g><g id="Blueberries"><path class="cls-31" d="M215.22,620.74l9.2,14.67-1.47,27.4-5.18,.71s-.3-34.84-2.54-42.79Z"/><path class="cls-31" d="M254.73,663.96s22.26,5.41,36.25-6.58l2.67,4.33-31.73,13.84-7.2-11.59Z"/><path class="cls-31" d="M268.85,668.38s8.58,9.75,30.66,8.22l1.56,10.17s-36.11-15.32-39.13-11.22c-3.02,4.09,1.61,23.33,1.61,23.33l-9.59-7.43-2.92-21.07,17.81-2Z"/><path class="cls-31" d="M316.5,848.23l-23.82,11.85,9.51,7.58s5.28-6.6,20.44-14.56-6.13-4.87-6.13-4.87Z"/><path class="cls-31" d="M262.59,732.9s1,3.27,2.56,8.05c4.28,13.15,12.78,37.75,16.25,37.21l-10.03-.28s-13.49-45.15-18.56-45.26c-5.07-.11,9.79,.28,9.79,.28Z"/><polygon class="cls-31" points="283.35 746.56 262.22 745.97 266.67 751.94 283.12 754.5 283.35 746.56"/><path class="cls-31" d="M234.78,766.16l27.45-20.19,4.32,10.6s-22.45,5.59-28.64,15.85c-6.19,10.26-3.12-6.26-3.12-6.26Z"/><path class="cls-31" d="M431.13,791.43s43.05,67.3,50.04,66.13l-10.25-1.67-44.17-64.59,4.38,.12Z"/><polygon class="cls-31" points="458.64 792.21 444 813.45 437.2 806.58 454.98 788.45 458.64 792.21"/><path class="cls-31" d="M444.23,805.08s-20.18,5.06-23.25,2.83-.18,6.57-.18,6.57l23.2-1.03,.24-8.37Z"/><path class="cls-30" d="M413.67,711.19s91.23-23.11,128.09,18.11c0,0,17.99,20.86,15.86,24.46,0,0-18.31-14.71-26.82-9.16-8.51,5.55-33.3,19.62-56.5,16.28l-69.16,4.24s-7.67-7.04-34.14,3.72c-26.47,10.76,10.48-66.64,10.48-66.64l32.18,8.99Z"/><path class="cls-30" d="M290.4,678.39s56.73-50.63,157.63-8.1c0,0,27.09,11.74,31.78,3.52,0,0-4.52,25.91-40.46,30.67,0,0-57.1,14.9-75.09,4.85-17.99-10.05-67.42-3.09-73.86-30.94Z"/><path class="cls-30" d="M436.21,841.68s122.07,21.03,108.07,92.14c0,0,1.62-6.29-25.11-10.05s-72.28-22.01-84.77-62.61c-12.49-40.6,1.82-19.49,1.82-19.49Z"/><path class="cls-30" d="M363.67,838.97s23.59,12.29,23.54,44.65c-.06,32.36,12.04,66.1-10.84,81.64,0,0,.47-16.99-9.62-20.1-17.4-4.68-46.64-47.24-27.02-83.75,19.62-36.52,23.95-22.44,23.95-22.44Z"/><path class="cls-30" d="M296.33,817.57s-12.78,51.63-78.7,57.09c0,0-10.22,1.29-14.86,3.77,0,0,4.67-12.92,6.98-20.68,2.31-7.76,11.51-53.58,60.48-54.09l26.1,13.91Z"/><path class="cls-31" d="M289,809.78c-15.63,11.06-35.49,24.79-50.43,36.41-12.64,9.84-25.15,20.17-35.79,32.25,16.73-27.46,57.34-54.77,86.22-68.66h0Z"/><path class="cls-31" d="M353.28,847.64c1.87,9.92,3.82,19.87,6.66,29.52,1.94,5.9,3.63,12.07,7.89,16.43,.39,.42,.87,.89,1.2,1.34,9,13.89,8.47,53.34,7.33,70.34-2.03-20.02-2.67-40.34-7.23-59.93-.92-3.23-1.71-6.44-3.89-8.88-9.29-9.38-11.59-35.78-11.96-48.82h0Z"/><path class="cls-31" d="M367.65,743.09c8.51-.07,17-.41,25.45-1.05,8.45-.62,16.87-1.57,25.19-2.96,8.3-1.43,16.55-3.26,24.38-6.12,.98-.35,1.95-.72,2.91-1.12,.96-.39,1.93-.77,2.86-1.22,.94-.44,1.89-.84,2.79-1.34l2.8-1.46c3.89-2.07,7.98-3.68,12.16-4.93,8.38-2.45,17.1-3.46,25.76-3.38,8.66,.12,17.31,1.37,25.6,3.84,8.3,2.45,16.23,6.19,23.24,11.23,6.95,5.11,12.89,11.63,16.83,19.19-4.71-7.1-10.89-13.04-17.95-17.57-3.53-2.26-7.25-4.2-11.11-5.82-3.85-1.61-7.8-3.01-11.86-4.02-8.1-2.03-16.44-3.16-24.78-3.05-8.33,.04-16.68,1.04-24.61,3.43-3.97,1.16-7.83,2.65-11.47,4.55l-2.86,1.47c-.97,.52-1.97,.95-2.97,1.4-.99,.47-2.01,.85-3.02,1.26-1.01,.42-2.04,.77-3.06,1.12-8.22,2.78-16.68,4.55-25.18,5.64-8.5,1.14-17.04,1.67-25.57,1.83-8.53,.1-17.06-.09-25.54-.9Z"/><path class="cls-30" d="M287.56,700.75s49.58-10.92,93.94,82.08c0,0,3.05,42.82-35.59,23.19-38.63-19.64-30.81-19.42-30.81-19.42l-30.03-35.74,2.48-50.11Z"/><path class="cls-31" d="M191.02,577.68l4.03,23.83s113.87,146.81,160.19,173.95c46.32,27.14,3.52,.1,3.52,.1,0,0,161.13,103.18,185.51,156.33,0,0-32.21-63.54-195.74-171.49,0,0-148.97-148.5-157.51-182.72Z"/><path class="cls-30" d="M220.16,653.16s51.25,53.38-12.64,143.52c-.17,.24-.33,.47-.5,.71,0,0-2.65,10.63-14.55,16.29,0,0-4.79,3.26-3.46,11.65,0,0-48.35-44.5,15.79-125.34,0,0,9.97-42.55,15.36-46.82Z"/><path class="cls-31" d="M290.4,678.39c15.86-2.83,31.87-4.83,47.96-6.11,8.04-.66,16.12-1.03,24.22-1.13,4.05-.04,8.11,.04,12.18,.27,4.07,.24,8.15,.6,12.24,1.34,1.02,.17,2.04,.42,3.07,.68,1.06,.24,1.94,.52,2.92,.76,1.92,.5,3.85,.95,5.8,1.38,3.89,.86,7.82,1.57,11.75,2.24,7.87,1.37,15.82,2.32,23.78,3.05,3.98,.35,7.97,.57,11.96,.71,3.99,.14,7.99,.13,11.96-.09,3.98-.2,7.95-.64,11.8-1.58,1.92-.49,3.82-1.1,5.55-2.05,1.73-.92,3.36-2.21,4.22-4.06-.67,1.93-2.22,3.45-3.91,4.57-1.71,1.14-3.62,1.93-5.55,2.6-3.88,1.3-7.92,1.98-11.95,2.48-8.08,.9-16.22,.92-24.3,.53-8.1-.36-16.15-1.26-24.17-2.42-4.01-.6-8-1.33-11.98-2.16-1.99-.42-3.97-.87-5.95-1.37-.97-.23-2.02-.54-2.92-.74-.93-.22-1.86-.45-2.83-.61-7.67-1.42-15.71-1.66-23.68-1.76-7.99-.12-16.01,.17-24.03,.46-16.04,.69-32.08,1.81-48.14,3Z"/><path class="cls-31" d="M287.56,700.75s89.94,84.66,92.75,106.52"/><path class="cls-31" d="M189.01,825.33c-.9-4.27-1.73-8.59-1.64-13.05,.12-4.47,1.5-8.82,3.1-12.9,3.3-8.13,7.11-15.95,10.61-23.97,3.4-7.81,7.14-16,10.11-23.98,8.49-24.56,9.11-51.11,8.54-76.88-.56-17.38-2.04-34.75-4.32-52.07,2.02,8.5,3.48,17.13,4.75,25.79,4.58,36.07,6.72,76.48-7.97,110.61-4.41,9.93-9.2,19.93-14.13,29.58-3.73,7.73-8.57,15.27-9.6,23.9-.38,4.33,.04,8.67,.54,12.98h0Z"/><g><path class="cls-34" d="M281.59,642.09c-.35,12.46-.86,30.4,25.25,34.43,22.43,3.46,26.79-14.29,27.15-26.75,.35-12.46-17.85-26.93-30.31-27.29-12.46-.35-21.73,7.14-22.08,19.61Z"/><path class="cls-34" d="M341.98,736.2c-.33,11.57,5.13,27.3,23.8,27.82,19.08,.54,25-14.87,25.33-26.44,.33-11.57-10.41-21.26-23.97-21.64s-24.83,8.69-25.15,20.26Z"/><path class="cls-34" d="M259.51,796.2c.88,12.47,8.96,27.83,23.21,28.23,14.26,.4,32.86,.92,37.27-25.08,4.43-26.11-19.48-34.83-33.74-35.24-14.26-.4-28.23,10.96-26.74,32.09Z"/><path class="cls-34" d="M323.32,707.5c.45,10.02,12.23,19.19,22.26,19.47,10.03,.28,16.01-7.98,18.67-17.65,3.41-12.39-7.45-24.37-17.48-24.65-10.03-.28-23.98,11-23.45,22.83Z"/><path class="cls-34" d="M445.79,788.58c4.03,11.64,9.99,19,21.67,22.92,13.92,4.67,33.12-9.97,33.47-22.28,.35-12.31-7.16-33.76-31.15-34.44-12.31-.35-29.06,19.17-23.99,33.8Z"/><path class="cls-34" d="M434.8,891.75c-.32,11.23,10.1,20.64,23.26,21.01,13.16,.37,31.72-8.5,32.02-26.24,.37-21.37-21.02-21.47-30.67-21.74-13.16-.37-24.3,15.74-24.61,26.97Z"/><path class="cls-34" d="M390.28,845.24c-.36,12.65,9.66,22.37,22.25,23.54,22.86,2.12,28.23-15.88,28.58-28.52,.36-12.65-15.63-20.8-28.28-21.15-12.65-.36-22.2,13.49-22.56,26.13Z"/><path class="cls-34" d="M359.56,894.28c-.35,12.36,13.47,25.38,25.83,25.73,12.36,.35,28.46-11.84,28.81-24.19,.62-22.12-15.04-25.43-27.4-25.78-12.36-.35-26.89,11.88-27.24,24.24Z"/><path class="cls-34" d="M258.73,870.07c-.33,11.8,8.96,21.63,20.76,21.96s23.72-9.97,26.72-21.38c4.97-18.91-14.85-26.81-26.65-27.15s-20.5,14.77-20.83,26.57Z"/><path class="cls-34" d="M338.53,818.76c-.35,12.26,10.46,28.05,21.38,28.36,10.92,.31,20.05-9.38,20.39-21.63s-8.23-22.44-19.14-22.75-22.28,3.77-22.63,16.02Z"/><path class="cls-34" d="M232.68,720.08c1.32,11.51,14.54,19.46,29.28,19.88,14.74,.41,26.94-8.39,27.26-19.67,.32-11.28-12.08-34.18-26.81-34.6s-32.87,6.99-29.72,34.39Z"/><path class="cls-34" d="M201.12,781.72c-.31,11.04,8.38,20.24,19.42,20.55,11.04,.31,23.91-9.21,24.22-20.25,.4-14.08-11.73-31.02-22.77-31.33s-20.56,19.99-20.87,31.03Z"/><path class="cls-34" d="M277.05,741.29c-.33,11.88,10.56,22.83,24.39,25.36,15.19,2.78,31.62-11.89,31.95-23.77,.33-11.88-11.13-28.2-25.17-28.59-14.05-.4-30.83,15.12-31.16,27.01Z"/><path class="cls-34" d="M404.91,773.49c-.35,12.33,9.37,22.62,21.71,22.96,12.33,.35,22.62-9.37,22.96-21.71,.35-12.33-9.46-19.52-21.79-19.87s-22.53,6.28-22.88,18.61Z"/><path class="cls-34" d="M369.97,805.6c-.41,14.53,11.03,26.63,25.56,27.04,14.53,.41,25.61-12.07,30.7-25.68,8.47-22.62-14.55-31.73-29.07-32.14-14.53-.41-26.78,16.25-27.19,30.78Z"/><path class="cls-34" d="M311.38,844.55c-.33,11.59,13.09,26.61,24.69,26.93,11.59,.33,24.68-8.01,27.23-19.33,6.13-27.21-20.09-34.93-31.57-33.27s-20.02,14.07-20.34,25.67Z"/><path class="cls-34" d="M361.75,705.74c-.36,12.96,6.16,27.55,21.13,27.97s32.88-18.46,33.25-31.42-13.88-22.78-28.86-23.2c-14.98-.42-25.16,13.69-25.52,26.66Z"/></g><path class="cls-32" d="M254.87,725.95c3.8-1.15,5.98-5.99,4.33-9.6,1.57,1.48,1.8,3.66,3.77,3.62s3.72-1.35,4.97-2.88c-.7,1.96-.41,4.24,.75,5.97s3.17,2.85,5.25,2.94c-2.02,.34-3.79,1.87-4.43,3.81s-.12,4.23,1.31,5.7c-1.68-1.1-2.44-3.54-4.44-3.22s-2.76,2.75-3.26,4.42c.62-4.65-2.97-9.45-8.25-10.75Z"/><path class="cls-32" d="M289.26,801.02c3.28,1.03,7.2-1.27,7.91-4.63-.19,3.33,3.21,6.38,6.51,5.81-2.11,.79-3.42,3.04-3.67,5.28s.38,4.49,1.14,6.61c-.48-2.49-2.72-4.54-5.25-4.78s-5.12,1.34-6.06,3.7c2.04-3.86,1.79-8.83-.58-11.99Z"/><path class="cls-32" d="M308.66,740.45c1.6-1.61,4.23-2.09,6.29-1.12s3.38,3.29,3.17,5.55c-.22-2.21,.71-4.5,2.41-5.92s4.12-1.94,6.25-1.33c-2.83-1.13-3.72-5.41-1.35-7.34-1.55,1.32-3.99,1.44-5.66,.29s-2.42-3.48-1.74-5.4c-.81,2.01-2.07,4.04-4.09,4.84s-3.07-.39-5.25-2.18c3.05,3.21,2.89,8.91-.03,12.61Z"/><path class="cls-32" d="M301.83,642.75c1.86-.72,3.35-2.31,3.96-4.21s.3-4.06-.8-5.72c.51,1.98,3.04,2.83,5,2.25s3.45-2.13,4.84-3.62c-1.01,1.82-.37,4.38,1.38,5.5s4.34,.66,5.58-1.02c-1.74,1.53-2.49,4.1-1.86,6.33s2.63,4.01,4.92,4.4c-.69-1.23-2.6-1.33-3.67-.41s-1.36,2.5-1.08,3.88,1.03,2.61,1.16,4.03c-.25-2.29-2.46-4.18-4.76-4.08s-4.33,2.19-4.37,4.5c.38-3-.66-6.15-2.74-8.35s-5.17-3.4-7.55-3.49Z"/><path class="cls-32" d="M330.34,696.68h2.6c.47-.85,.71-1.83,.68-2.81,.29,1.1,1.32,1.97,2.46,2.08s2.31-.56,2.8-1.6c.12,1.18,.27,2.41,.93,3.39s2.04,1.59,3.08,1.02c-1.32,.58-2.52,1.61-2.94,2.99s.13,3.09,1.44,3.69c-1.05-1.7-3.12-2.71-5.11-2.5s-3.8,1.63-4.47,3.51c.46-1.74,.91-3.51,.75-5.3s-1.1-3.61-2.2-4.47Z"/><path class="cls-32" d="M354.45,740.38c.99,.76,2.36,1,3.55,.61s2.16-1.38,2.52-2.58c-.57,1.32-.44,3,.57,4.03s2.92,1.1,3.82-.02c-1.5,1.17-3.05,2.39-3.96,4.06s-1.03,3.93,.24,5.36c-.45-1.32-2.24-1.73-3.52-1.18s-2.15,1.73-2.95,2.87c.36-.83,.59-1.76,.38-2.63s-.95-1.67-1.85-1.72-.96,.81-1.54,1.73c.37-.99,.74-2.05,.46-3.07s-1.38-.98-2.41-1.25c2.99-.45,5.42-3.31,4.7-6.2Z"/><path class="cls-32" d="M323.95,862.17c.7,1.44,2.71,1.81,4.17,1.17s2.47-2,3.29-3.37c-.6,1.36,.58,2.96,2.01,3.37s2.94-.03,4.36-.47c-.89,1.09-1.81,2.22-2.2,3.57s-.1,3,1.04,3.82c-2.04-1.33-4.68-1.7-7.01-.99-.9-2.71-3.03-4.99-5.67-7.11Z"/><path class="cls-32" d="M271.33,874.03c1.62-.75,2.1-3.21,.88-4.52,.42,1.1,1.68,1.81,2.84,1.6s2.09-1.31,2.11-2.49c-.12,1.55,.58,3.14,1.81,4.09s2.95,1.23,4.42,.72c-1.29,.7-2.1,2.19-2,3.66s1.11,2.83,2.49,3.35c-.91-1.06-2.67-1.06-3.82-.26s-1.77,2.17-2.06,3.54c.23-1.04,.23-2.17-.21-3.14s-1.39-1.75-2.46-1.8-2.16,.8-2.21,1.86c.25-1.4,.43-2.88-.02-4.23s-1.71-2.54-1.77-2.37Z"/><path class="cls-32" d="M419.77,845.08c.54,1.63,2.84,2.06,4.34,1.21s2.34-2.49,3.02-4.06c-.48,1.24,.69,2.61,2,2.86s2.62-.27,3.84-.78c-.71,1.42-1.43,2.94-1.28,4.52s1.58,3.15,3.14,2.83c-3.88,.14-7.34,3.62-7.46,7.5,.2-1.83-.96-3.73-2.69-4.37s-3.85,.03-4.89,1.55c1.5-1.24,1.98-3.4,1.69-5.33s-1.22-3.69-1.7-5.94Z"/><path class="cls-32" d="M417.45,771.52c1.23-1.46,3.62-1.52,5.22-.48s2.49,2.93,2.83,4.81c-.48-1.78-.51-3.81,.53-5.34s3.38-2.22,4.81-1.05c-2.23-1.98-2.44-5.82-.43-8.03-1.23,1.16-3.24,1.36-4.68,.48s-2.17-2.77-1.69-4.39c.52,1.27-.18,2.9-1.46,3.4s-2.9-.21-3.39-1.49c.69,.86,.88,2.1,.47,3.12s-1.4,1.79-2.5,1.93c1.64,.45,2.8,2.22,2.57,3.9s-1.83,3.07-2.29,3.14Z"/><path class="cls-32" d="M393.65,794.54c1.8,1.02,4.41,.07,5.14-1.87,.53,1.27,2.28,1.63,3.56,1.1s2.17-1.67,3-2.77c-.55,.98-.23,2.36,.7,3s2.32,.46,3.05-.4c-.68,1.07-1.39,2.23-1.38,3.5s1.1,2.62,2.35,2.4c-1.62-.34-3.21,.98-3.77,2.54s-.34,3.27-.12,4.91c.42-1.7-.63-3.63-2.28-4.2s-3.67,.3-4.39,1.9c1.5-1.8,1.66-4.61,.36-6.56s-3.94-2.9-6.22-3.55Z"/><path class="cls-32" d="M466.46,905.98c2.81-1.37,4.99-3.98,5.83-6.99,.59,1.63,2.08,2.9,3.78,3.23s3.55-.29,4.71-1.58c-1.56,1.27-2.14,3.61-1.33,5.46-1.08-.42-2.37-.23-3.28,.48s-1.39,1.93-1.13,3.02c-2.13-2.62-5.8-3.9-8.58-3.63Z"/><path class="cls-32" d="M484.94,768.42c1.97-.3,3.58-2.15,3.61-4.14-.34,1.69,.9,3.38,2.44,4.14s3.34,.8,5.06,.83c-1.9,2.01-1.64,5.64,.52,7.37-.95-2.02-3.93-2.72-5.61-1.27,.27-1.74-.25-3.59-1.38-4.94s-2.86-2.18-4.65-1.98Z"/><path class="cls-32" d="M377.97,684.32c1.6,.02,3.11,1.19,3.52,2.74,1.05-.79,2.63-.79,3.67,0-.67-.93-.43-2.28,.24-3.2s1.7-1.52,2.7-2.09c-1.42-.8-3.21-.18-4.65,.61s-2.91,1.76-5.49,1.94Z"/><path class="cls-13" d="M287.25,725.11c-3.94,6.12-5.61,13.67-4.61,20.88,.15,1.07,.37,2.17,1.01,3.04s1.79,1.45,2.82,1.11c1.03-.35,1.6-1.51,1.65-2.59s-.29-2.15-.52-3.22c-.75-3.47-.27-7.18,1.32-10.35,.54-1.08,1.21-2.1,1.69-3.21s.75-2.37,.45-3.54-1.29-2.22-2.49-2.31-2.44,1.04-1.31,.2Z"/><g><path class="cls-13" d="M330.69,821.16c-3.72,1.03-6.84,3.65-9.17,6.74s-3.93,6.64-5.51,10.16c-.82,1.84-1.64,3.97-.79,5.8,.65,1.38,2.14,2.21,3.64,2.46s3.04,0,4.55-.23c1.96-.31,4.15-.77,5.23-2.43,.85-1.3,.76-2.99,.53-4.53-.35-2.36-.95-4.87-.02-7.07,.64-1.52,1.93-2.66,3.04-3.89s2.11-2.75,1.97-4.4-1.96-3.04-3.49-2.62Z"/><path class="cls-13" d="M276.42,845.3c-3,.6-5.8,2.9-8.06,5.77-2.26,2.86-4.06,6.29-5.82,9.69-.92,1.78-1.89,3.85-1.53,5.82,.27,1.49,1.28,2.51,2.38,2.95s2.32,.37,3.5,.31c1.54-.08,3.28-.29,4.37-1.85,.86-1.22,1.06-2.95,1.13-4.55,.11-2.45,.05-5.07,1.11-7.2,.73-1.48,1.9-2.48,2.94-3.6s2.05-2.55,2.21-4.25-1.01-3.33-2.24-3.08Z"/><path class="cls-13" d="M272.39,773.88c-3.95,2.95-7.02,7.07-8.7,11.7-1.13,3.11-1.6,6.74,.03,9.63,1.81,3.21,6.22,4.64,9.57,3.1s5.15-5.8,3.91-9.27c-.43-1.19-1.17-2.36-1.02-3.61,.23-1.87,2.24-2.88,3.85-3.86,2.48-1.52,4.53-3.73,5.87-6.31,.8-1.55,1.32-3.53,.33-4.97-.71-1.04-2.05-1.5-3.31-1.45s-2.45,.54-3.59,1.07c-3.13,1.46-6.07,3.32-6.94,3.97Z"/><path class="cls-13" d="M243.56,696.45c-3.95,2.95-7.02,7.07-8.7,11.7-1.13,3.11-1.6,6.74,.03,9.63,1.81,3.21,6.22,4.64,9.57,3.1s5.15-5.8,3.91-9.27c-.43-1.19-1.17-2.36-1.02-3.61,.23-1.87,2.24-2.88,3.85-3.86,2.48-1.52,4.53-3.73,5.87-6.31,.8-1.55,1.32-3.53,.33-4.97-.71-1.04-2.05-1.5-3.31-1.45s-2.45,.54-3.59,1.07c-3.13,1.46-6.07,3.32-6.94,3.97Z"/><path class="cls-13" d="M367.73,690.91c-1.12,1.48-.94,3.58-.31,5.32s1.65,3.34,2.12,5.14c.47,1.8,.36,3.73-.2,5.5-.52,1.63-1.39,3.13-1.81,4.79s-.25,3.63,1.02,4.76c1.74,1.55,4.7,.68,6.09-1.18s1.6-4.34,1.65-6.66,0-4.75,1.01-6.85c.51-1.08,1.29-2.04,1.63-3.19,.47-1.57,.05-3.25-.36-4.83-.52-1.99-2.45-5.32-4.3-6.21-2.49-1.2-4.89,2.35-6.54,3.41Z"/><path class="cls-13" d="M330.44,708.86h0c-1.33-.64-2.86,.41-2.71,1.88,.12,1.18,.57,2.36,1.24,3.35,1.23,1.84,3.07,3.18,4.87,4.47,1.97,1.41,4.02,2.87,6.41,3.28s5.2-.54,6.11-2.78c.63-1.55,.23-3.39-.73-4.76s-2.39-2.34-3.89-3.1c-1.63-.82-3.51-1.43-5.27-.97-.92,.24-1.77,.77-2.73,.83-1.05,.06-2.07-.56-2.33-1.11-.22-.46-.51-.88-.97-1.1Z"/><path class="cls-13" d="M290.25,629.25c-3.67,4.62-5.68,10.53-5.6,16.43s2.26,11.75,6.06,16.26c.79,.94,1.71,1.86,2.89,2.18s2.67-.19,3.04-1.36c.42-1.34-.73-2.92-.04-4.14,.38-.67,1.17-.97,1.7-1.52,.82-.86,.85-2.23,.47-3.36s-1.12-2.08-1.74-3.1c-2.27-3.73-2.92-8.4-1.77-12.61s4.11-7.89,7.97-9.93c.72-.38,1.57-.83,1.7-1.64,.21-1.29-1.49-1.98-2.8-2-5.14-.09-10.23,2.69-11.89,4.78Z"/><path class="cls-13" d="M470.22,755.64c-4.5,.54-8.64,2.99-11.78,6.26s-5.37,7.32-7.11,11.51c-.95,2.3-1.79,4.8-1.3,7.24,.59,2.95,3.33,5.39,6.34,5.45s5.92-2.39,6.21-5.38c.14-1.46-.28-2.91-.35-4.38-.26-5.01,3.35-9.26,6.48-13.18,.73-.92,1.47-1.88,1.8-3s.21-2.47-.62-3.3-2.43-.86,.33-1.21Z"/><path class="cls-13" d="M451.8,871.19c-5.73,1.96-8.74,8.09-11.16,13.64-1.41,3.26-2.83,7-1.38,10.23,1.48,3.28,5.27,4.68,8.15,6.84,1.94,1.46,3.56,3.38,5.72,4.48s5.23,1.05,6.58-.97c1.77-2.65-.52-6.67,1.33-9.26,1.09-1.52,3.27-1.96,4.31-3.51,1.01-1.5,.61-3.56-.27-5.14s-2.17-2.9-3.03-4.49c-1.23-2.28-1.49-4.94-2.14-7.44s-1.91-5.11-4.28-6.16-5.83,.51-3.84,1.79Z"/><path class="cls-13" d="M378.12,877.39c-6.33,2.42-11.4,7.91-13.33,14.4-.92,3.11-1.11,6.59,.34,9.48s4.9,4.92,8.01,4.01c-.53-1.29-.78-2.8-.21-4.08s2.19-2.13,3.44-1.5c1.49,.75,1.66,2.97,3.07,3.85,1.56,.98,3.73-.36,4.33-2.11s.17-3.65-.13-5.47c-1.24-7.55-.04-15.48,3.4-22.31-1.74-1.35-4.37-.93-6.15,.36s-2.93,3.27-2.79,3.36Z"/><path class="cls-13" d="M400.59,834.96c-3.02,.19-5.12,3.4-5.19,6.42s1.36,5.86,2.74,8.55c.93,1.81,1.86,3.62,2.79,5.43,1.77,3.44,4.04,7.27,7.84,7.96,1.09,.2,2.36,.05,3.08-.79,1.26-1.48,.06-3.73-1.25-5.17-1.91-2.1-4.08-4-5.6-6.39s-2.34-5.48-1.23-8.09c1.14-2.69,3.94-4.2,6.48-5.65s-6.77-4.59-9.66-2.28Z"/><path class="cls-13" d="M370.49,752.44c-2.16,.25-4.16,2.16-4.01,4.33s2.96,3.8,4.72,2.53c1.22-.88,1.9-2.84,3.4-2.7,.72,.07,1.31,.66,2.02,.73,.89,.09,1.64-.62,2.22-1.29,3.88-4.46,6.62-9.91,7.88-15.69,.23-1.03,.41-2.1,.21-3.14s-.83-2.05-1.82-2.43c-1.81-.68-3.61,.93-4.83,2.43-4.07,5.01-7.59,10.47-9.8,15.23Z"/><path class="cls-13" d="M208.98,763.65l5.25-3.34c1.21,2.01,.72,4.63-.26,6.76s-2.42,4.06-3.12,6.3c-1.05,3.38-.3,7.02,.46,10.47,.73,3.33,1.98,7.24,5.27,8.12,1.38,.37,2.95,.13,4.14,.9,1.51,.98,1.66,3.36,.55,4.77s-3.13,1.9-4.9,1.56-3.33-1.38-4.69-2.57c-4.7-4.09-7.58-10.2-7.74-16.44s.96-13.95,5.04-16.54Z"/><path class="cls-13" d="M482.08,799.7c-2.19,1.37-3.6,3.9-3.62,6.48,7.03-1.11,13.47-5.47,17.13-11.58,.4-.68,.78-1.4,.84-2.19s-.28-1.65-1-1.99c-1.03-.49-2.19,.29-3.07,1.02-3.75,3.14-7.39,6.43-10.28,8.25Z"/></g><g><path class="cls-32" d="M339.37,691.17c1.95,2.42,5.89,3.03,7.08,6.32,.23,.65,.31,1.41,.12,2.12-.41,1.44-1.55,2.27-1.86,3.28-.18,.47-.09,.97-.02,1.67,.13,5.02-8.83,3.8-11.93,2.81,2.47,.35,4.99,.4,7.45,.01,1.17-.19,2.41-.55,3.1-1.35,.88-.95,0-2.33,.46-3.46,.53-1.4,1.63-2.18,1.9-3.21,.75-4.01-4.68-5.21-6.29-8.19h0Z"/><path class="cls-32" d="M349.28,742.7c1.71-4.16,5.95-8.02,10.72-7.98,.85,.07,1.76,.54,2.26,1.29,.5,.72,.72,1.42,1.18,1.87,1.34,1.39,4.91,2.41,4.46,5.2-.16,.91-.67,1.56-1.04,2.19-.78,1.21-.82,2.77-1.24,4.28-.41,1.43-1.57,3.09-3.22,2.95,3.66-.63,2.36-5.06,3.78-7.6,.36-.7,.77-1.33,.85-1.95,.04-2.43-2.75-2.69-4.33-4.39-1.05-1.18-1.1-2.73-2.83-2.91-4.38-.08-8.49,3.34-10.6,7.04h0Z"/><path class="cls-32" d="M379.39,688.83c2.94,1.51,6.79,2.61,9.47,.19,.74-.71,1.19-1.73,2.24-2.22,.6-.28,1.27-.2,1.74-.14,.91,.16,1.8-.07,2.55-.59,1.54-1,1.94-3.41,.72-5.06,.76,.68,1.17,1.74,1.17,2.81,.02,2.28-2.32,4.12-4.54,3.78-.52-.05-.9-.08-1.23,.08-.8,.42-1.25,1.39-1.98,2.04-2.92,2.7-7.45,1.33-10.14-.9h0Z"/><path class="cls-32" d="M303.38,634.43c-2.5,2.19-3.53,5.25-2.86,8.5-2.23-2.75-.57-7.66,2.86-8.5h0Z"/><path class="cls-32" d="M303.54,644.8c2.03,3.11,4.28,6.64,8.09,7.6,1.49,.38,3.2,.04,4.65,.85,1.91,1.24,3.93,2.1,6.15,1.06,4.52-1.81,5.28-7.32,4.65-11.62,1.31,4.46,.51,10.47-4.27,12.49-1.5,.67-3.34,.81-4.91,.1-.77-.35-1.4-.83-2.04-1.15-1.35-.73-2.94-.42-4.44-.87-3.96-1.16-6.21-4.96-7.86-8.45h0Z"/><path class="cls-32" d="M307.92,725.95c-3.45,4.32-2.06,9.82-1.29,14.85-2.19-4.51-3.39-11.45,1.29-14.85h0Z"/><path class="cls-32" d="M318.43,746.09c4.53,1.58,8.49-2.71,8.85-7,.45-3.22-.42-6.64-2.28-9.33-.61-.93-1.36-1.76-2.2-2.53,.97,.59,1.82,1.37,2.59,2.23,2.25,2.68,3.37,6.27,2.88,9.77-.39,4.62-5.14,9.36-9.84,6.86h0Z"/><path class="cls-32" d="M285.14,804.79c-.6-2.57-.7-6.03,2.12-7.42,1.28-.65,2.73,.03,3.96-.4,1.12-.37,2.07-1.32,3.19-2.12,3.64-2.78,9.23-.58,10,3.91,.29,1.29,.46,2.68,1.54,3.54-1.24-.66-1.59-2.19-2.02-3.41-.36-1.26-1.07-2.35-2.07-3.12-1.96-1.58-4.9-1.6-6.89-.1-1.05,.7-2.03,1.74-3.49,2.2-1.34,.45-2.71-.26-3.94,.2-2.53,1.05-2.58,4.32-2.42,6.71h0Z"/><path class="cls-32" d="M294.88,815.02c.9-1.44,3.03-.65,4.17,0,1.17,.6,2.46,1.01,3.24-.29,.63-.97,1.42-2.72,1.99-3.79,.64-1.3,1.29-2.6,1.97-3.91-.31,1.44-.72,2.85-1.25,4.22-.91,1.86-1.51,5.26-4.1,5.29-2.22-.01-3.89-3.1-6.02-1.52h0Z"/><path class="cls-32" d="M273.59,867.87c1.68-2.12,5.25-2.3,7.35-.56,1.11,.85,1.42,2.12,2.44,2.86,1.08,.62,2.54,.92,3.3,2.09,1.13,1.48,1.26,3.62,.26,5.06,.64-1.61,.16-3.41-.86-4.57-1.1-1.31-3.34-1.2-4.27-2.78-1.48-3.11-5.39-4.23-8.21-2.1h0Z"/><path class="cls-32" d="M270.61,877.26c-.69,.71-.76,1.74-.46,2.58,1.26,3.36,5.96,2.77,7.95,5.74,.29,.45,.51,.82,.72,.88,.44,.21,1.72-.82,2.19-1.03,1.65-.99,3.34-1.92,5.06-2.8-1.51,1.2-3.06,2.36-4.64,3.45-1.63,1.14-2.85,2.29-4.12,.06-1.69-2.26-5.24-2.29-7.02-4.75-.87-1.2-.99-3.26,.33-4.13h0Z"/><path class="cls-32" d="M322.95,856.56c1.12,.09,2.23,.25,3.35,.37l-.27,.15c.59-1.85,2.15-4.31,4.47-3.54,1.95,.77,3.18,1.88,5.28,2.04,2.61,.3,6.82,.95,7.19,4.33,.11,1-.25,2.13-1.13,2.62,.75-.65,.92-1.67,.71-2.55-.78-3.01-4.24-3.05-6.91-3.43-2.01-.09-3.77-1.36-5.4-2.14-1.85-.64-3.07,1.38-3.75,2.86,0,0-.09,.19-.09,.19-1.15-.3-2.3-.57-3.44-.9h0Z"/><path class="cls-32" d="M392.35,916.3c2.47-.5,2.75-3.16,4.32-4.84,.78-.96,2.29-1.6,3.49-1.09,1.04,.33,2.13,1.01,3.02,.1-.18,.59-.88,.87-1.48,.91-.64,.03-1.21-.16-1.74-.25-3.61-.63-3.86,5.8-7.62,5.17h0Z"/><path class="cls-32" d="M472.25,909.28c.56,.51,1.09,1.06,1.74,1.38,1.18,.66,2.85,.17,2.59-1.41-.07-.81-.22-1.98,.62-2.53,0,0,.47-.34,.47-.34l.23,.51c.2,.45,1.32,.3,1.75-.35,.53-.65,.93-1.74,1.81-2.46,1.23-.96,4.1-2.25,2.76-4.31,.91,.66,.63,2.08,.05,2.9-.66,.89-1.59,1.39-2.24,2.04-.86,.71-1.14,2.33-2.29,3.06-.82,.54-2.17,.56-2.69-.41,0,0,.7,.17,.7,.17-.61,.4,0,2.18-.52,2.99-.64,1.28-2.5,1.3-3.46,.51-.64-.49-1.1-1.11-1.51-1.74h0Z"/><path class="cls-32" d="M487.05,762.95c-2.2,.16-4.26,1.57-5.17,3.55-.48,1.03-.3,1.84,.6,2.6,.39,.4,.9,.91,.96,1.73,.05,.91-.9,1.79-1.84,1.27,0,0,.64-.7,.64-.7,2.37,3.12,5.21,6.64,9.41,6.78,.41,.02,.88,.01,1.35,.23,1.38,.66,1,2.47,1.29,3.58,.16,.74,1.12,1.4,1.79,.83-.64,.73-1.83,.08-2.08-.73-.53-1.52-.16-3.51-2.35-3.2-4.51,.19-7.79-3.6-10.18-6.91,0,0,.64-.7,.64-.7,.14,.08,.44-.24,.4-.43-.09-1.01-1.52-1.59-1.63-2.79-.09-3.08,3.33-5.31,6.15-5.11h0Z"/><path class="cls-32" d="M415.71,765.95c-1.23,2.97-.51,7.73,3.33,7.8,1.19-.06,3.22-.62,4.04,.83,.28,.48,.36,.94,.5,1.29,.24,.72,.88,.84,1.52,.62,.64-.24,1.17-.9,1.73-1.57l3.4-3.98c1.13-1.33,2.39-2.57,2.98-4.09,1.19-3.15-.38-7.13-3.45-8.64,3.36,1.19,5.33,5.34,4.18,8.9-.57,1.75-1.88,3.05-2.98,4.44,0,0-3.36,4.02-3.36,4.02-.77,1-2.21,2.48-3.78,1.86-1.07-.33-1.17-1.64-1.52-2.38-.16-.27-.4-.45-.74-.53-.7-.16-1.59,.02-2.51,0-4.32-.26-5.09-5.43-3.33-8.57h0Z"/><path class="cls-32" d="M392.78,802.13c.15,2.24,1.79,4.11,3.88,4.61,1.48,.38,2.95-.47,4.53,.02,.85,.2,1.55,1.07,1.76,1.84,.24,.69,.57,1.19,1.29,1.36,.66,.18,1.45,.02,1.96-.56-.53,1.12-2.28,1.39-3.24,.55-.36-.31-.55-.7-.72-1.04-.5-1.46-1.88-1.48-3.37-1.21-3.2,.83-6.8-2.29-6.09-5.58h0Z"/><path class="cls-32" d="M397.28,789.22c1.64-.12,2.84-1.06,4.49-1.54,1.54-.6,4.17,.13,4.1,2.14,0,0-.19-.02-.19-.02,.07-.13,.15-.25,.22-.37,0,.25-.05,.58-.08,.83-1.38-4.1-5.89,.22-8.54-1.03h0Z"/><path class="cls-32" d="M306.6,630.41c.82-2.71,5.17-3.36,6.74-1-2.41-.91-4.7-.58-6.74,1h0Z"/><path class="cls-32" d="M256.24,717.32c-2.12,1.14-4.41,2.96-3.97,5.5,.12,.71,.71,1.42,.78,2.53,.07,.98-.8,1.54-.7,2.37,.68,2.25,3.56,3.41,5.87,3.42-1.68,.41-3.6,.05-5.09-1-1.15-.68-2.34-2.44-1.41-3.81,.22-.41,.34-.67,.33-.97,.01-.64-.52-1.39-.71-2.38-.47-2.98,2.42-5.09,4.89-5.68h0Z"/></g><g><g><path class="cls-12" d="M216.76,769.24c-1.1,1.73-1.29,4.22,.13,5.7,.86,.9,2.19,1.32,2.84,2.38,.67,1.1,.38,2.52-.12,3.71s-1.19,2.33-1.29,3.61c-.22,2.71,2.37,4.99,5.05,5.42s5.38-.48,7.94-1.38c3.26-1.15,6.87-2.61,8.21-5.8,.86-2.06,.55-4.41,.09-6.6-.67-3.17-1.65-6.33-3.52-8.97s-4.75-4.71-7.97-4.98-10.27,5.2-11.37,6.92Z"/><path class="cls-12" d="M256.86,703.83c-.71,2.03-.46,4.54,1.16,5.95,3.6,3.1,10.03-1.45,13.67,1.6,1.86,1.56,1.95,4.31,2.38,6.7s2.02,5.14,4.44,4.88c2.18-.23,3.26-2.72,3.76-4.85,1.2-5.12,1.58-10.6-.19-15.55s-6.02-9.24-11.24-9.93-13.28,9.19-13.99,11.21Z"/><path class="cls-12" d="M288.31,778.05c-1.53,2.78,1.49,6.56,4.6,7.2,2.15,.44,4.38-.33,6.56-.08,2.22,.25,4.22,1.55,5.73,3.19s2.59,3.63,3.63,5.61c.5,.95,1.18,2.04,2.26,2.06,1.08,.03,1.83-1.06,2.26-2.06,2.46-5.74,1.06-12.91-3.37-17.3-4.43-4.39-16.58-7.84-21.66,1.37Z"/><path class="cls-12" d="M291.16,850.92c-3.52,.18-6.16,3.76-6.33,7.28s1.56,6.87,3.66,9.71c1.4,1.9,3.1,3.75,5.35,4.47s5.14-.12,6.01-2.32c.33-.84,.34-1.79,.73-2.61s2.03-9-.58-11.88-6.68-4.37-8.84-4.64Z"/><path class="cls-12" d="M351.34,722.39c-.99,1.61-1.73,3.46-1.58,5.34s1.35,3.77,3.18,4.26c3.2,.87,6.52-2.65,9.62-1.48,2.36,.89,3.05,3.93,4.98,5.55,1.96,1.66,5.02,1.54,7.21,.2,3.22-1.96,4.68-6.2,3.8-9.86s-3.84-6.64-7.34-8.02-7.48-1.28-11.09-.23-7.6,2.34-8.77,4.22Z"/><path class="cls-12" d="M347.44,826.24c-3.06,.06-6.08,1.45-8.11,3.74s-3.04,5.45-2.73,8.5c.1,.92,.33,1.87,.97,2.53,1.26,1.29,3.36,.92,5.15,1.14,2.44,.3,4.66,1.96,5.63,4.22,.66,1.55,.92,3.51,2.4,4.31,1.45,.78,3.25-.06,4.51-1.13,4.22-3.59,5.74-10.01,3.58-15.11s-7.81-8.26-11.41-8.19Z"/><path class="cls-12" d="M417.23,795.56c.61,4.31-1.4,8.88-4.98,11.34-1.02,.7-2.16,1.24-3.08,2.07s-1.64,2.04-1.43,3.26c.25,1.47,1.78,2.46,3.27,2.53s2.91-.6,4.18-1.39c4.86-3.02,8.37-8.17,9.25-13.82s3.16-11.59-2.55-11.59c-1.21,0-5.26,3.3-4.64,7.61Z"/><path class="cls-12" d="M432.48,775.17c-2.38,2.08-2.93,5.58-1.46,8.38,.71,1.35,1.57,2.62,2.36,2.69,2.26,.21,4.19-1.51,5.8-3.1,2.64-2.61,5.41-5.46,6.05-9.11,.68-3.87-1.19-7.69-3-11.18-.51-.97-1.1-2.03-2.41-2.06-.86-.02-1.65,.47-2.15,1.17-1.06,1.5-.88,3.33-1.04,5.07-.3,3.17-1.88,6.19-4.1,8.1-.02,.01-.03,.03-.05,.04Z"/><path class="cls-12" d="M385.65,695.32c-2.74,.74-4.73,3.61-4.47,6.43s2.75,5.28,5.58,5.5c1.24,.1,2.54-.19,3.72,.2,.89,.29,1.63,.93,2.46,1.35,2.95,1.5,7.05-.31,7.94-3.49,.34-1.23,.26-2.57,.78-3.74,.72-1.63,2.43-2.55,3.67-3.82,1.7-1.74,2.56-4.35,1.96-6.7s-2.79-4.29-5.22-4.35c-1.94-.05-3.73,1-5.39,2.01-4.2,2.56-8.12,5.83-11.03,6.62Z"/><path class="cls-12" d="M349.66,705.91c-1.04,1.42-2.52,2.7-2.71,4.46-.24,2.29,2.49,4.31,4.61,3.41,1.34-.57,2.15-1.92,3.15-2.98,.94-.99,2.1-1.75,3.07-2.71,3.63-3.57,4.05-9.91,.92-13.93-1.46-1.87-4.15-3.24-6.16-2-1.13,.7-1.71,2.07-1.8,3.4s.92,7.61-1.08,10.35Z"/><path class="cls-12" d="M300.85,648.3c.31,2.26,.63,4.56,1.59,6.63,1.11,2.41,3.23,4.52,5.99,4.66,1.07,.05,2.15-.49,2.55-1.49,.7-1.77-1.17-3.25-2.46-4.57-1.2-1.22-2.07-2.77-3.44-3.78s-3.6-1.24-4.21-1.45Z"/><path class="cls-12" d="M467.12,768.72c-.91,2.12-1.41,4.57-.59,6.72,.9,2.36,3.27,4.07,3.65,6.56,.34,2.17-.93,4.22-1.97,6.15s-1.88,4.35-.77,6.24c.82,1.39,2.49,2.07,4.1,2.22,2.92,.28,5.94-.94,7.86-3.16,1.17-1.36,2.07-3.15,3.76-3.71,2.11-.69,4.52,.86,6.57,0,1.95-.82,2.46-3.54,1.6-5.47s-2.67-3.25-4.4-4.48c-2.63-1.86-5.32-3.75-7.2-6.37s-2.83-6.13-1.6-9.11c.41-.98,2.33-2.38,1.64-3.19-3.65-4.3-10.68,2.99-12.66,7.59Z"/><path class="cls-12" d="M464.51,874.04c-.29,1.72,.46,3.96,2.2,4.08,.97,.07,1.99-.57,2.86-.14,.97,.48,.94,1.83,1.15,2.9,.37,1.9,1.89,3.39,3.56,4.39,2.28,1.38,5.1,2.07,7.66,1.34s4.71-3.14,4.64-5.81c-.07-2.47-1.88-4.53-3.76-6.13-2.84-2.41-6.1-4.33-9.58-5.66-1.77-.67-3.68-1.19-5.54-.86s-2.89,4.18-3.17,5.9Z"/><path class="cls-12" d="M392.18,876.47c-1.64,.77-2.85,2.76-2.14,4.42,.45,1.04,1.48,1.67,2.36,2.38s1.7,1.77,1.44,2.87c-.49,2.1-3.84,1.72-5.25,3.36-.94,1.09-.7,2.83,.11,4.02s2.06,2,3.21,2.87c1.54,1.17,2.95,2.53,4.58,3.57s3.56,1.78,5.48,1.53c2.75-.36,4.91-2.7,5.88-5.3s.95-5.44,.92-8.22c-.03-2.37-.09-4.85-1.2-6.95-2.03-3.86-6.89-5.24-11.24-5.35,0,.35-2.51,.01-4.15,.79Z"/><path class="cls-12" d="M353.59,815.24c-1.89,0-4.25,3.43-1.89,4.69,2.35,.12,4.63,1.32,6.07,3.19,1.18,1.53,2.03,3.64,3.91,4.07,.97-.6,1.28-1.91,1.03-3.02s-.93-2.06-1.61-2.97c-1.11-1.51-2.24-3.05-3.73-4.18s-1.9-1.78-3.79-1.78Z"/></g><path class="cls-12" d="M320,756.96c1.64-2.8,.68-6.6-2.28-7.43-2.05-.57-4.36-.1-6.46-.47-2.13-.38-4.07-2.96-5.44-4.74s-2.3-3.9-3.18-6.01c-.42-1.01-1.03-2.18-2.06-2.26-1.04-.08-1.83,1-2.3,2.01-2.7,5.82-1.76,13.33,2.27,18.12,4.03,4.79,14.02,10.07,19.45,.78Z"/></g><path class="cls-13" d="M389.73,783.86c-3.72,1.03-6.84,3.65-9.17,6.74s-3.93,6.64-5.51,10.16c-.82,1.84-2,5.9-1.15,7.72,.65,1.38,3.54,5.35,5.04,5.6s2.54,.26,4.04,0c3.89-.65,3.61-6.07,4.7-7.73,.85-1.3,.76-2.99,.53-4.53-.35-2.36-.95-4.87-.02-7.07,.64-1.52,1.93-2.66,3.04-3.89s2.11-2.75,1.97-4.4-1.96-3.04-3.49-2.62Z"/><path class="cls-12" d="M435.9,834.77c-1.21-1.93-2.45-3.9-4.17-5.4-2-1.74-4.8-2.79-7.37-1.79-1,.39-1.76,1.33-1.71,2.41,.09,1.9,2.4,2.49,4.12,3.15,1.59,.62,3.02,1.67,4.69,2.03s3.79-.35,4.44-.41Z"/></g></svg>