<?xml version="1.0" encoding="UTF-8"?><svg xmlns="http://www.w3.org/2000/svg" viewBox="0 0 864 864"><defs><style>.cls-1{fill:#f9c8d6;}.cls-2{fill:#fbf2df;}.cls-3{fill:#c2e0ae;}.cls-4{fill:#231f20;}.cls-5{fill:none;stroke:#231f20;stroke-miterlimit:10;}</style></defs><g id="Layer_2"><rect class="cls-2" x="2" y="1.86" width="862.76" height="861.16"/></g><g id="Layer_1"><g><path class="cls-4" d="M864,733.36l-134.23-31.52-54.89-162.56-230.31-86.28-123.34-18.41L184.67-.07l-36.14-1.72,134.6,430.7-213.27-31.83L0,297.57v46.25l32.25,47.64-39.08-5.83v33.69l64.33,9.46,165.39,244.35,129.99,191.28,61.07,.57-37.89-23.98-74.66-105.89,140.25,53.46-53.47-140.88,104.87,75.19,66.68,141.12,42.52,.41-86.21-164.75-142.61-98.93-41.34-131.58,126.7,22.27h.01l71.68,193.67,169.96,46.15,46.06,134.33,38.23-.96-41.07-121.63,120.34,32.68v-42.3Zm-473.55,3.74l-111.86-42.7h0S96.1,434.45,96.1,434.45l197.86,29.09,32.74,104.78,63.75,168.78Zm132.35-159.67l-27.9-73.82,73.03,28.26-45.13,45.56Zm31.82,83.28l-19.87-52.79,63.59-64.21,52.01,20.34,38.39,128.16-134.12-31.5Z"/><path class="cls-4" d="M864,686.27l-148.13-188.37-60.91-60.32,10.39-10.49c15.46-15.61,23.73-31.98,24.81-49.13,1.07-17.15-5.25-32.53-18.98-46.12-12.82-12.7-27.71-18.91-44.66-18.64-9.73,.11-18.68,2.54-26.84,7.28-8.1,4.68-18.37,13.3-30.81,25.87l-12.26-200.17,143.51,63.32c-3.24,2.26-6.33,4.88-9.29,7.87-12.7,12.83-19.49,27.33-20.38,43.51-.95,16.12,4.2,29.76,15.47,40.92,16.71,16.54,39.57,18.85,68.58,6.92l20.36-8.51c5.34-2.15,10.24-3.71,14.72-4.67,4.47-.95,8.58-1.28,12.32-.97,3.74,.3,7.22,1.25,10.45,2.85,3.23,1.59,6.3,3.83,9.22,6.72,7.25,7.18,10.93,15.45,11.04,24.79,.11,9.35-3.33,17.55-10.32,24.61-8.85,8.93-18.82,12.53-29.92,10.78-5.93-.75-13.81-4.96-23.65-12.65l-17.65,27.93,112.93,236.03v-66.35l-73.94-153.36c3.01,.32,6.03,.41,9.04,.27,16.11-.85,30.61-7.79,43.5-20.81,13.6-13.72,20.45-29.71,20.55-47.95,.11-18.11-6.73-34-20.53-47.66-10.29-10.2-21.78-15.99-34.45-17.38-12.67-1.39-27.49,1.57-44.47,8.87l-20.94,8.9c-15.24,6.45-26.52,6.05-33.84-1.19-5.31-5.26-7.66-11.7-7.06-19.31,.55-7.67,3.93-14.64,10.15-20.93,5.07-5.11,10.24-8.26,15.52-9.45,4.89-1.31,12.02-.73,21.37,1.74l7.31-29.14-201.41-85.13L547.65,0h-38.24l9.29,101.49L278.59,0h-53.32l296.1,130.64,22.1,241.35,149.98,148.55,170.55,212.82,.1-1.44,2.93-41.8-3.03-3.85Zm-230.02-269.47l-47.21-46.76,7.41-7.48c21.23-21.43,39.58-24.49,55.06-9.16,16,15.85,13.7,34.16-6.89,54.95l-8.37,8.45Z"/><polygon class="cls-3" points="688.74 692.21 554.62 660.71 534.75 607.92 598.34 543.71 650.35 564.05 688.74 692.21"/><polygon class="cls-1" points="278.59 694.4 278.59 694.39 96.1 434.45 293.96 463.54 326.7 568.32 390.45 737.1 278.59 694.4"/></g><path class="cls-1" d="M863.16,685.09l.84,.1v1.08l-148.13-188.37-60.91-60.32,10.39-10.49c15.46-15.61,23.73-31.98,24.81-49.13,1.07-17.15-5.25-32.53-18.98-46.12-12.82-12.7-27.71-18.91-44.66-18.64-9.73,.11-18.68,2.54-26.84,7.28-8.1,4.68-18.37,13.3-30.81,25.87l-12.26-200.17,143.51,63.32c-3.24,2.26-6.33,4.88-9.29,7.87-12.7,12.83-19.49,27.33-20.38,43.51-.95,16.12,4.2,29.76,15.47,40.92,16.71,16.54,39.57,18.85,68.58,6.92l20.36-8.51c5.34-2.15,10.24-3.71,14.72-4.67,4.47-.95,8.58-1.28,12.32-.97,3.74,.3,7.22,1.25,10.45,2.85,3.23,1.59,6.3,3.83,9.22,6.72,7.25,7.18,10.93,15.45,11.04,24.79,.11,9.35-3.33,17.55-10.32,24.61-8.85,8.93-18.82,12.53-29.92,10.78-5.93-.75-13.81-4.96-23.65-12.65l-17.65,27.93,112.93,236.03-.84,69.46Z"/><line class="cls-5" x1="554.62" y1="660.71" x2="530.85" y2="684.66"/><line class="cls-5" x1="493.05" y1="722.88" x2="515.64" y2="700.06"/></g></svg>